<svg width="14" height="10" viewBox="0 0 14 10" fill="none" xmlns="http://www.w3.org/2000/svg">
<path d="M7.54628 1.11096L13.7763 7.34113C13.9206 7.48523 14 7.67759 14 7.88269C14 8.08779 13.9206 8.28015 13.7763 8.42425L13.3176 8.88306C13.0188 9.18161 12.533 9.18161 12.2345 8.88306L7.0029 3.65142L1.76547 8.88886C1.62126 9.03296 1.42901 9.11252 1.22402 9.11252C1.01881 9.11252 0.826564 9.03296 0.68224 8.88886L0.223659 8.43005C0.0794487 8.28584 1.9195e-06 8.0936 1.92194e-06 7.8885C1.92439e-06 7.68339 0.0794487 7.49104 0.223659 7.34694L6.45941 1.11096C6.60408 0.966518 6.79723 0.887186 7.00256 0.887642C7.20869 0.887186 7.40173 0.966518 7.54628 1.11096Z" fill="#55657E"/>
</svg>
