<svg width="22" height="25" viewBox="0 0 22 25" fill="none" xmlns="http://www.w3.org/2000/svg">
<path d="M2.21314 18.8404C2.5326 20.5412 3.66747 21.9652 5.25253 22.656L9.24468 24.6401C9.26248 24.649 9.28003 24.6567 9.29783 24.6646C9.81923 24.8881 10.3793 25 10.9391 25C11.4992 25 12.059 24.8886 12.5804 24.6646C12.5982 24.6567 12.616 24.6485 12.6335 24.6401L16.6257 22.656C18.2107 21.9652 19.3464 20.5412 19.6699 18.816L21.842 5.48386C21.9498 4.90879 21.8092 4.31058 21.4559 3.84335C21.1029 3.37663 20.5657 3.07829 19.9927 3.02615L17.057 2.72984C16.3164 2.66269 15.6106 2.44472 14.9933 2.10263L11.9501 0.261197C11.3163 -0.090304 10.5599 -0.090304 9.89325 0.281035L6.91745 2.0833C6.17502 2.49585 5.80674 2.66931 5.14799 2.72984L1.89496 3.02513C1.3115 3.07829 0.775094 3.37663 0.421305 3.84335C0.0713305 4.30702 -0.0698292 4.89887 0.0326706 5.46961L2.21314 18.8404ZM5.33799 4.804C6.41716 4.70608 7.09345 4.36908 7.96432 3.88455L10.9396 2.08279L13.949 3.90388C14.8547 4.40748 15.8372 4.71015 16.8587 4.80298L19.7897 5.12371L17.6176 18.4561C17.4248 19.4828 16.7366 20.3418 15.7767 20.7533C15.7589 20.7609 15.7413 20.7693 15.7235 20.7777L11.7357 22.7595C11.2278 22.9696 10.6507 22.9696 10.1428 22.7595L6.15468 20.7777C6.13713 20.7688 6.11932 20.7609 6.10152 20.7533C5.14163 20.3418 4.45288 19.4834 4.26492 18.481L2.08877 5.12422C2.08699 5.11608 2.08597 5.10819 2.08445 5.0998L5.33799 4.804Z" fill="#55657E"/>
<path d="M9.68232 16.3621C9.88554 16.5658 10.1523 16.6673 10.4189 16.6673C10.6857 16.6673 10.9522 16.5658 11.1555 16.3621L16.3644 11.1532C16.7713 10.7462 16.7713 10.087 16.3644 9.68002C15.9582 9.27333 15.2977 9.27333 14.8912 9.68002L10.4189 14.1518L8.03012 11.7636C7.62394 11.3569 6.96341 11.3569 6.55697 11.7636C6.15028 12.1705 6.15028 12.8298 6.55697 13.2367L9.68232 16.3621Z" fill="#55657E"/>
</svg>
