<svg width="5" height="9" viewBox="0 0 5 9" fill="none" xmlns="http://www.w3.org/2000/svg">
<path d="M2.39787 2.901C2.76187 2.901 3.11287 2.901 3.47687 2.901C3.73687 2.901 3.89287 3.018 3.89287 3.278C3.89287 3.486 3.86687 3.707 3.82787 3.915C3.68487 4.695 3.54187 5.488 3.39887 6.268C3.34687 6.528 3.29487 6.788 3.26887 7.048C3.25587 7.178 3.26887 7.308 3.30787 7.425C3.34687 7.594 3.47687 7.685 3.64587 7.659C3.78887 7.646 3.91887 7.594 4.06187 7.542C4.16587 7.503 4.26987 7.425 4.37387 7.386C4.52987 7.321 4.67287 7.438 4.62087 7.594C4.59487 7.685 4.54287 7.789 4.46487 7.854C4.06187 8.257 3.58087 8.504 3.00887 8.504C2.73587 8.504 2.47587 8.504 2.20287 8.465C1.76087 8.4 1.20187 7.854 1.27987 7.282C1.33187 6.879 1.39687 6.489 1.46187 6.099C1.57887 5.41 1.69587 4.721 1.82587 4.032C1.83887 3.993 1.83887 3.941 1.83887 3.902C1.83887 3.616 1.74787 3.512 1.46187 3.473C1.34487 3.46 1.21487 3.447 1.09787 3.408C0.95487 3.356 0.88987 3.252 0.90287 3.135C0.91587 3.018 0.993869 2.94 1.14987 2.914C1.22787 2.901 1.31887 2.901 1.39687 2.901C1.72187 2.901 2.05987 2.901 2.39787 2.901Z" fill="white"/>
<path d="M3.03493 0.197021C3.64593 0.197021 4.12693 0.691022 4.12693 1.31502C4.12693 1.92602 3.63293 2.42002 3.03493 2.42002C2.42393 2.42002 1.92993 1.91302 1.92993 1.30202C1.92993 0.691022 2.42393 0.197021 3.03493 0.197021Z" fill="white"/>
</svg>
