<svg width="22" height="24" viewBox="0 0 22 24" fill="none" xmlns="http://www.w3.org/2000/svg">
<path d="M2.59508 17.8717C2.89811 19.485 3.97463 20.8359 5.47819 21.4911L9.26508 23.3732C9.28197 23.3817 9.29861 23.3889 9.3155 23.3964C9.8101 23.6085 10.3414 23.7146 10.8724 23.7146C11.4036 23.7146 11.9347 23.609 12.4293 23.3964C12.4462 23.3889 12.463 23.3812 12.4797 23.3732L16.2666 21.4911C17.7701 20.8359 18.8474 19.485 19.1543 17.8485L21.2147 5.2019C21.317 4.6564 21.1835 4.08894 20.8484 3.64574C20.5136 3.20302 20.004 2.92002 19.4604 2.87056L16.6758 2.58948C15.9732 2.52579 15.3037 2.31903 14.7181 1.99452L11.8314 0.247767C11.2302 -0.0856609 10.5127 -0.0856609 9.8803 0.266586L7.05751 1.97619C6.35326 2.36752 6.00391 2.53206 5.37903 2.58948L2.29326 2.86959C1.7398 2.92002 1.23097 3.20302 0.895371 3.64574C0.563391 4.08557 0.429489 4.64699 0.526718 5.18839L2.59508 17.8717ZM5.55926 4.557C6.58294 4.46411 7.22446 4.14444 8.05055 3.68483L10.8729 1.97571L13.7275 3.70316C14.5867 4.18087 15.5187 4.46797 16.4876 4.55603L19.2679 4.86027L17.2075 17.5071C17.0246 18.4811 16.3718 19.2959 15.4612 19.6862C15.4443 19.6935 15.4277 19.7014 15.4108 19.7094L11.628 21.5893C11.1462 21.7886 10.5988 21.7886 10.117 21.5893L6.33396 19.7094C6.31731 19.701 6.30042 19.6935 6.28353 19.6862C5.373 19.2959 4.71965 18.4816 4.54136 17.5308L2.4771 4.86075C2.47541 4.85303 2.47445 4.84555 2.473 4.83759L5.55926 4.557Z" fill="#6CA8F1"/>
<path d="M9.68026 15.5209C9.87303 15.7141 10.1261 15.8104 10.379 15.8104C10.6321 15.8104 10.8849 15.7141 11.0777 15.5209L16.0188 10.5798C16.4048 10.1938 16.4048 9.56842 16.0188 9.1824C15.6335 8.79662 15.0069 8.79662 14.6214 9.1824L10.379 13.4243L8.11301 11.1588C7.72771 10.7731 7.10115 10.7731 6.71561 11.1588C6.32982 11.5449 6.32982 12.1702 6.71561 12.5562L9.68026 15.5209Z" fill="#6CA8F1"/>
</svg>
