<svg width="15" height="14" viewBox="0 0 15 14" fill="none" xmlns="http://www.w3.org/2000/svg">
<g clip-path="url(#clip0)">
<path d="M3.52553 4.89175L7.0288 0.220707C7.24894 -0.0735688 7.7429 -0.0735688 7.963 0.220707L11.4663 4.89175C11.5988 5.06867 11.6198 5.30514 11.5212 5.50307C11.4219 5.70101 11.2204 5.82595 10.9992 5.82595H9.24753V8.16146C9.24753 8.48376 8.98653 8.74533 8.66366 8.74533H6.32815C6.00527 8.74533 5.74428 8.48376 5.74428 8.16146V5.82595H3.99264C3.77136 5.82595 3.56932 5.70101 3.47008 5.50307C3.37138 5.30514 3.3924 5.06867 3.52553 4.89175Z" fill="white"/>
<path d="M6.32793 9.32898H8.66344C8.98632 9.32898 9.24731 9.58997 9.24731 9.91285C9.24731 10.2357 8.98632 10.4967 8.66344 10.4967H6.32793C6.00506 10.4967 5.74406 10.2357 5.74406 9.91285C5.74406 9.58997 6.00506 9.32898 6.32793 9.32898Z" fill="white"/>
<path d="M6.32793 11.0807H8.66344C8.98632 11.0807 9.24731 11.3417 9.24731 11.6646C9.24731 11.9874 8.98632 12.2484 8.66344 12.2484H6.32793C6.00506 12.2484 5.74406 11.9874 5.74406 11.6646C5.74406 11.3417 6.00506 11.0807 6.32793 11.0807Z" fill="white"/>
<path d="M6.32793 12.8323H8.66344C8.98632 12.8323 9.24731 13.0933 9.24731 13.4161C9.24731 13.739 8.98632 14 8.66344 14H6.32793C6.00506 14 5.74406 13.739 5.74406 13.4161C5.74406 13.0933 6.00506 12.8323 6.32793 12.8323Z" fill="white"/>
</g>
<defs>
<clipPath id="clip0">
<rect width="14" height="14" transform="matrix(-1 0 0 1 14.4956 0)" fill="white"/>
</clipPath>
</defs>
</svg>
