<svg width="14" height="10" viewBox="0 0 14 10" fill="none" xmlns="http://www.w3.org/2000/svg">
<path d="M6.45372 8.88904L0.223657 2.65887C0.0794464 2.51477 -6.27228e-08 2.32241 -5.37575e-08 2.11731C-4.47921e-08 1.91221 0.0794465 1.71985 0.223657 1.57575L0.682352 1.11694C0.981244 0.818393 1.46703 0.818393 1.76547 1.11694L6.9971 6.34858L12.2345 1.11114C12.3787 0.967043 12.571 0.887482 12.776 0.887482C12.9812 0.887482 13.1734 0.967043 13.3178 1.11114L13.7763 1.56995C13.9206 1.71416 14 1.9064 14 2.11151C14 2.31661 13.9206 2.50897 13.7763 2.65306L7.54059 8.88904C7.39592 9.03348 7.20277 9.11281 6.99744 9.11236C6.79131 9.11281 6.59827 9.03348 6.45372 8.88904Z" fill="#55657E"/>
</svg>
