<svg width="25" height="26" viewBox="0 0 25 26" fill="none" xmlns="http://www.w3.org/2000/svg">
<path d="M5.17721 25.7061C7.28189 25.7061 9.08837 23.6226 9.89221 20.3479C9.97087 20.0247 10.2598 19.7987 10.5945 19.7987H14.4551C14.7898 19.7987 15.0787 20.0247 15.1581 20.3479C15.9612 23.6226 17.7677 25.7061 19.8724 25.7061C22.7466 25.7061 24.9986 21.7968 24.9986 16.8694C24.9986 11.942 22.7466 8.08161 19.8724 8.08161H13.8171C15.008 5.70188 14.6794 2.75459 12.8386 0.706055L11.7487 1.6858C13.3541 3.47085 13.4763 6.13424 12.1107 8.08161H5.17721C2.30301 8.08161 0.00216675 11.942 0.00216675 16.8694C0.00216675 21.7968 2.30301 25.7061 5.17721 25.7061ZM18.4078 12.4755C19.6192 12.4755 20.6047 13.461 20.6047 14.6725C20.6047 15.8839 19.6192 16.8694 18.4078 16.8694C17.1963 16.8694 16.2108 15.8839 16.2108 14.6725C16.2108 13.461 17.1963 12.4755 18.4078 12.4755ZM4.44489 13.9402H5.90953V12.4755H7.37416V13.9402H8.8388V15.4048H7.37416V16.8694H5.90953V15.4048H4.44489V13.9402Z" fill="#55657E"/>
</svg>
