<svg width="106" height="28" viewBox="0 0 106 28" fill="none" xmlns="http://www.w3.org/2000/svg">
<path d="M1.15 26H0.65V26.5H1.15V26ZM1.15 1.5V0.999998H0.65V1.5H1.15ZM5.455 1.5H5.955V0.999998H5.455V1.5ZM5.455 22.08H4.955V22.58H5.455V22.08ZM18.335 22.08H18.835V21.58H18.335V22.08ZM18.335 26V26.5H18.835V26H18.335ZM1.65 26V25.4896H0.65V26H1.65ZM1.65 24.4688V23.4479H0.65V24.4688H1.65ZM1.65 22.4271V21.4062H0.65V22.4271H1.65ZM1.65 20.3854V19.3646H0.65V20.3854H1.65ZM1.65 18.3438V17.3229H0.65V18.3438H1.65ZM1.65 16.3021V15.2812H0.65V16.3021H1.65ZM1.65 14.2604V13.2396H0.65V14.2604H1.65ZM1.65 12.2188V11.1979H0.65V12.2188H1.65ZM1.65 10.1771V9.15625H0.65V10.1771H1.65ZM1.65 8.13542V7.11458H0.65V8.13542H1.65ZM1.65 6.09375V5.07292H0.65V6.09375H1.65ZM1.65 4.05208V3.03125H0.65V4.05208H1.65ZM1.65 2.01041V1.5H0.65V2.01041H1.65ZM1.15 2H1.68813V0.999998H1.15V2ZM2.76438 2H3.84063V0.999998H2.76438V2ZM4.91688 2H5.455V0.999998H4.91688V2ZM4.955 1.5V2.0145H5.955V1.5H4.955ZM4.955 3.0435V4.0725H5.955V3.0435H4.955ZM4.955 5.1015V6.1305H5.955V5.1015H4.955ZM4.955 7.1595V8.1885H5.955V7.1595H4.955ZM4.955 9.2175V10.2465H5.955V9.2175H4.955ZM4.955 11.2755V12.3045H5.955V11.2755H4.955ZM4.955 13.3335V14.3625H5.955V13.3335H4.955ZM4.955 15.3915V16.4205H5.955V15.3915H4.955ZM4.955 17.4495V18.4785H5.955V17.4495H4.955ZM4.955 19.5075V20.5365H5.955V19.5075H4.955ZM4.955 21.5655V22.08H5.955V21.5655H4.955ZM5.455 22.58H5.99167V21.58H5.455V22.58ZM7.065 22.58H8.13833V21.58H7.065V22.58ZM9.21167 22.58H10.285V21.58H9.21167V22.58ZM11.3583 22.58H12.4317V21.58H11.3583V22.58ZM13.505 22.58H14.5783V21.58H13.505V22.58ZM15.6517 22.58H16.725V21.58H15.6517V22.58ZM17.7983 22.58H18.335V21.58H17.7983V22.58ZM17.835 22.08V22.57H18.835V22.08H17.835ZM17.835 23.55V24.53H18.835V23.55H17.835ZM17.835 25.51V26H18.835V25.51H17.835ZM18.335 25.5H17.8576V26.5H18.335V25.5ZM16.9029 25.5H15.9482V26.5H16.9029V25.5ZM14.9935 25.5H14.0388V26.5H14.9935V25.5ZM13.084 25.5H12.1293V26.5H13.084V25.5ZM11.1746 25.5H10.2199V26.5H11.1746V25.5ZM9.26514 25.5H8.31042V26.5H9.26514V25.5ZM7.35569 25.5H6.40097V26.5H7.35569V25.5ZM5.44625 25.5H4.49153V26.5H5.44625V25.5ZM3.5368 25.5H2.58208V26.5H3.5368V25.5ZM1.62736 25.5H1.15V26.5H1.62736V25.5ZM1.15 26H0.15V27H1.15V26ZM1.15 1.5V0.499998H0.15V1.5H1.15ZM5.455 1.5H6.455V0.499998H5.455V1.5ZM5.455 22.08H4.455V23.08H5.455V22.08ZM18.335 22.08H19.335V21.08H18.335V22.08ZM18.335 26V27H19.335V26H18.335ZM2.15 26V25.4896H0.15V26H2.15ZM2.15 24.4688V23.4479H0.15V24.4688H2.15ZM2.15 22.4271V21.4062H0.15V22.4271H2.15ZM2.15 20.3854V19.3646H0.15V20.3854H2.15ZM2.15 18.3438V17.3229H0.15V18.3438H2.15ZM2.15 16.3021V15.2812H0.15V16.3021H2.15ZM2.15 14.2604V13.2396H0.15V14.2604H2.15ZM2.15 12.2188V11.1979H0.15V12.2188H2.15ZM2.15 10.1771V9.15625H0.15V10.1771H2.15ZM2.15 8.13542V7.11458H0.15V8.13542H2.15ZM2.15 6.09375V5.07292H0.15V6.09375H2.15ZM2.15 4.05208V3.03125H0.15V4.05208H2.15ZM2.15 2.01041V1.5H0.15V2.01041H2.15ZM1.15 2.5H1.68813V0.499998H1.15V2.5ZM2.76438 2.5H3.84063V0.499998H2.76438V2.5ZM4.91688 2.5H5.455V0.499998H4.91688V2.5ZM4.455 1.5V2.0145H6.455V1.5H4.455ZM4.455 3.0435V4.0725H6.455V3.0435H4.455ZM4.455 5.1015V6.1305H6.455V5.1015H4.455ZM4.455 7.1595V8.1885H6.455V7.1595H4.455ZM4.455 9.2175V10.2465H6.455V9.2175H4.455ZM4.455 11.2755V12.3045H6.455V11.2755H4.455ZM4.455 13.3335V14.3625H6.455V13.3335H4.455ZM4.455 15.3915V16.4205H6.455V15.3915H4.455ZM4.455 17.4495V18.4785H6.455V17.4495H4.455ZM4.455 19.5075V20.5365H6.455V19.5075H4.455ZM4.455 21.5655V22.08H6.455V21.5655H4.455ZM5.455 23.08H5.99167V21.08H5.455V23.08ZM7.065 23.08H8.13833V21.08H7.065V23.08ZM9.21167 23.08H10.285V21.08H9.21167V23.08ZM11.3583 23.08H12.4317V21.08H11.3583V23.08ZM13.505 23.08H14.5783V21.08H13.505V23.08ZM15.6517 23.08H16.725V21.08H15.6517V23.08ZM17.7983 23.08H18.335V21.08H17.7983V23.08ZM17.335 22.08V22.57H19.335V22.08H17.335ZM17.335 23.55V24.53H19.335V23.55H17.335ZM17.335 25.51V26H19.335V25.51H17.335ZM18.335 25H17.8576V27H18.335V25ZM16.9029 25H15.9482V27H16.9029V25ZM14.9935 25H14.0388V27H14.9935V25ZM13.084 25H12.1293V27H13.084V25ZM11.1746 25H10.2199V27H11.1746V25ZM9.26514 25H8.31042V27H9.26514V25ZM7.35569 25H6.40097V27H7.35569V25ZM5.44625 25H4.49153V27H5.44625V25ZM3.5368 25H2.58208V27H3.5368V25ZM1.62736 25H1.15V27H1.62736V25ZM42.6636 22.71L43.0205 23.0602V23.0602L42.6636 22.71ZM24.2886 22.745L23.9316 23.0951V23.0951L24.2886 22.745ZM24.3236 4.79L23.9667 4.43983L24.3236 4.79ZM42.6986 4.755L43.0555 4.40486L42.6986 4.755ZM27.5436 19.945L27.1752 20.2831L27.18 20.2883L27.5436 19.945ZM39.4436 19.945L39.0775 19.6044L39.075 19.6071L39.4436 19.945ZM39.4086 7.59L39.0401 7.92812L39.0451 7.93331L39.4086 7.59ZM27.5086 7.555L27.1425 7.21438L27.14 7.21714L27.5086 7.555ZM42.3067 22.3598C42.1911 22.4776 42.0742 22.5923 41.9558 22.7041L42.6423 23.4312C42.7701 23.3106 42.8961 23.1869 43.0205 23.0602L42.3067 22.3598ZM41.2169 23.3483C40.9604 23.5542 40.6978 23.7476 40.4291 23.9284L40.9874 24.7581C41.2797 24.5613 41.5649 24.3513 41.8429 24.1281L41.2169 23.3483ZM39.5956 24.4385C39.3107 24.5962 39.0192 24.7413 38.7212 24.8738L39.1274 25.7876C39.452 25.6433 39.7695 25.4852 40.0799 25.3133L39.5956 24.4385ZM37.8116 25.232C37.5056 25.3376 37.1929 25.4311 36.8736 25.5125L37.1206 26.4816C37.4662 26.3935 37.8053 26.292 38.1379 26.1773L37.8116 25.232ZM35.9139 25.7171C35.5951 25.7722 35.2701 25.8161 34.9387 25.8488L35.0369 26.844C35.3918 26.809 35.741 26.7618 36.0843 26.7024L35.9139 25.7171ZM33.9537 25.9123C33.7901 25.9174 33.625 25.92 33.4586 25.92V26.92C33.6353 26.92 33.8108 26.9173 33.985 26.9118L33.9537 25.9123ZM33.4586 25.92C33.2928 25.92 33.1284 25.9175 32.9656 25.9124L32.9347 26.912C33.108 26.9173 33.2826 26.92 33.4586 26.92V25.92ZM31.9848 25.8501C31.6546 25.8179 31.3309 25.7747 31.0136 25.7205L30.8452 26.7062C31.1868 26.7646 31.5344 26.8109 31.8878 26.8454L31.9848 25.8501ZM30.0577 25.5191C29.7394 25.4389 29.428 25.3467 29.1233 25.2425L28.7998 26.1888C29.131 26.302 29.4688 26.4019 29.8132 26.4888L30.0577 25.5191ZM28.2169 24.8888C27.9197 24.7578 27.6292 24.6142 27.3455 24.4582L26.8636 25.3344C27.173 25.5046 27.4897 25.661 27.8135 25.8038L28.2169 24.8888ZM26.5149 23.9529C26.247 23.7735 25.9854 23.5817 25.7302 23.3773L25.1052 24.158C25.3823 24.3798 25.6668 24.5884 25.9585 24.7838L26.5149 23.9529ZM24.9945 22.7372C24.8767 22.6261 24.7604 22.512 24.6455 22.3949L23.9316 23.0951C24.0554 23.2214 24.181 23.3445 24.3083 23.4646L24.9945 22.7372ZM24.6455 22.3949C24.5326 22.2798 24.4226 22.1636 24.3154 22.0462L23.577 22.7206C23.6923 22.8469 23.8105 22.9717 23.9316 23.0951L24.6455 22.3949ZM23.6963 21.3157C23.4979 21.0627 23.3114 20.8046 23.1367 20.5415L22.3035 21.0943C22.493 21.3799 22.695 21.6594 22.9095 21.9329L23.6963 21.3157ZM22.6424 19.7257C22.4887 19.4467 22.3473 19.1623 22.218 18.8723L21.3047 19.2796C21.4454 19.5951 21.5993 19.9047 21.7664 20.2081L22.6424 19.7257ZM21.8667 17.9863C21.7625 17.6876 21.6702 17.3832 21.5898 17.0732L20.6218 17.3242C20.709 17.6604 20.8092 17.9909 20.9225 18.3156L21.8667 17.9863ZM21.3866 16.1393C21.3316 15.8285 21.2877 15.5122 21.255 15.1903L20.2601 15.2914C20.2953 15.6373 20.3425 15.978 20.402 16.3136L21.3866 16.1393ZM21.1913 14.2318C21.1861 14.0725 21.1836 13.9119 21.1836 13.75H20.1836C20.1836 13.9225 20.1863 14.0939 20.1918 14.2642L21.1913 14.2318ZM21.1836 13.75C21.1836 13.5887 21.1862 13.4286 21.1915 13.2698L20.1921 13.2363C20.1864 13.4064 20.1836 13.5777 20.1836 13.75H21.1836ZM21.2571 12.3144C21.2907 11.994 21.3358 11.6788 21.3922 11.3689L20.4084 11.1896C20.3473 11.5249 20.2987 11.8651 20.2626 12.2102L21.2571 12.3144ZM21.6002 10.4388C21.6822 10.1305 21.7764 9.82752 21.8826 9.52984L20.9408 9.19368C20.8252 9.51753 20.7229 9.84683 20.6338 10.1815L21.6002 10.4388ZM22.2396 8.64825C22.3706 8.36022 22.5138 8.07725 22.6692 7.79933L21.7965 7.31113C21.6275 7.61316 21.4718 7.92092 21.3293 8.23438L22.2396 8.64825ZM23.1678 6.98766C23.3434 6.72602 23.5308 6.46903 23.7301 6.21669L22.9454 5.59683C22.7304 5.86907 22.5277 6.14692 22.3375 6.43038L23.1678 6.98766ZM24.3504 5.48832C24.4576 5.3712 24.5676 5.25515 24.6805 5.14017L23.9667 4.43983C23.8459 4.56291 23.728 4.68731 23.6129 4.81302L24.3504 5.48832ZM24.6805 5.14017C24.796 5.02243 24.9129 4.90768 25.0313 4.79591L24.3448 4.0688C24.217 4.18942 24.091 4.3131 23.9667 4.43983L24.6805 5.14017ZM25.7703 4.15168C26.0267 3.94579 26.2893 3.75244 26.558 3.57157L25.9997 2.74193C25.7074 2.93868 25.4222 3.1487 25.1442 3.37193L25.7703 4.15168ZM27.3915 3.06154C27.6764 2.90381 27.9679 2.7587 28.266 2.62619L27.8597 1.71243C27.5351 1.85674 27.2176 2.01483 26.9072 2.18668L27.3915 3.06154ZM29.1755 2.268C29.4816 2.16238 29.7942 2.06885 30.1135 1.98747L29.8665 1.01845C29.5209 1.10654 29.1818 1.20795 28.8493 1.32273L29.1755 2.268ZM31.0732 1.78294C31.392 1.72782 31.717 1.68387 32.0484 1.65116L31.9502 0.655994C31.5953 0.691024 31.2461 0.738196 30.9028 0.797573L31.0732 1.78294ZM33.0335 1.58769C33.197 1.58257 33.3621 1.58 33.5286 1.58V0.58C33.3518 0.58 33.1763 0.582725 33.0021 0.588185L33.0335 1.58769ZM33.5286 1.58C33.6944 1.58 33.8587 1.58252 34.0215 1.58756L34.0524 0.588033C33.8791 0.582675 33.7045 0.58 33.5286 0.58V1.58ZM35.0023 1.64992C35.3325 1.68208 35.6562 1.7253 35.9735 1.77952L36.1419 0.793812C35.8003 0.735429 35.4527 0.689056 35.0993 0.654627L35.0023 1.64992ZM36.9294 1.98091C37.2477 2.06113 37.5591 2.15334 37.8638 2.25749L38.1873 1.31124C37.8561 1.19805 37.5183 1.09806 37.1739 1.01124L36.9294 1.98091ZM38.7702 2.61121C39.0674 2.74224 39.3579 2.88577 39.6416 3.0418L40.1235 2.16556C39.8141 1.99542 39.4975 1.83896 39.1736 1.69619L38.7702 2.61121ZM40.4722 3.54707C40.7401 3.7265 41.0017 3.91834 41.2569 4.12268L41.8819 3.34202C41.6048 3.12019 41.3204 2.91155 41.0286 2.71616L40.4722 3.54707ZM41.9926 4.76278C42.1104 4.87392 42.2267 4.98803 42.3416 5.10514L43.0555 4.40486C42.9317 4.27864 42.8061 4.15546 42.6788 4.03536L41.9926 4.76278ZM42.3416 5.10514C42.4545 5.22018 42.5645 5.33639 42.6717 5.45378L43.4101 4.7794C43.2948 4.65313 43.1766 4.52828 43.0555 4.40486L42.3416 5.10514ZM43.2908 6.18427C43.4892 6.43727 43.6757 6.69536 43.8504 6.95854L44.6836 6.40566C44.4941 6.12009 44.2921 5.84058 44.0776 5.56711L43.2908 6.18427ZM44.3447 7.77434C44.4984 8.0533 44.6398 8.33774 44.7691 8.62769L45.6824 8.22044C45.5417 7.90485 45.3878 7.59534 45.2207 7.29192L44.3447 7.77434ZM45.1204 9.51374C45.2246 9.81244 45.3169 10.1168 45.3973 10.4268L46.3653 10.1758C46.2781 9.83962 46.1779 9.50912 46.0646 9.18435L45.1204 9.51374ZM45.6005 11.3607C45.6555 11.6715 45.6994 11.9878 45.7321 12.3097L46.727 12.2086C46.6918 11.8627 46.6446 11.522 46.5851 11.1864L45.6005 11.3607ZM45.7958 13.2682C45.801 13.4275 45.8036 13.5881 45.8036 13.75H46.8036C46.8036 13.5775 46.8008 13.4061 46.7953 13.2358L45.7958 13.2682ZM45.8036 13.75C45.8036 13.9113 45.8009 14.0714 45.7956 14.2302L46.795 14.2637C46.8007 14.0936 46.8036 13.9223 46.8036 13.75H45.8036ZM45.73 15.1856C45.6964 15.506 45.6514 15.8212 45.5949 16.1311L46.5787 16.3104C46.6398 15.9751 46.6884 15.6349 46.7246 15.2898L45.73 15.1856ZM45.387 17.0612C45.3049 17.3695 45.2107 17.6725 45.1045 17.9702L46.0463 18.3063C46.1619 17.9825 46.2642 17.6532 46.3533 17.3185L45.387 17.0612ZM44.7475 18.8517C44.6166 19.1398 44.4734 19.4228 44.3179 19.7007L45.1906 20.1889C45.3596 19.8868 45.5153 19.5791 45.6578 19.2656L44.7475 18.8517ZM43.8193 20.5123C43.6437 20.774 43.4563 21.031 43.257 21.2833L44.0417 21.9032C44.2567 21.6309 44.4594 21.3531 44.6497 21.0696L43.8193 20.5123ZM42.6367 22.0117C42.5295 22.1288 42.4195 22.2448 42.3067 22.3598L43.0205 23.0602C43.1412 22.9371 43.2592 22.8127 43.3743 22.687L42.6367 22.0117ZM27.9119 19.6069C27.7899 19.4739 27.673 19.3388 27.5613 19.2015L26.7857 19.8328C26.9101 19.9856 27.04 20.1357 27.1752 20.2831L27.9119 19.6069ZM26.9408 18.3335C26.7523 18.0302 26.5854 17.7174 26.44 17.3947L25.5283 17.8056C25.692 18.1689 25.8799 18.521 26.0917 18.8615L26.9408 18.3335ZM26.0683 16.3975C25.9676 16.0611 25.8873 15.7144 25.8276 15.3572L24.8413 15.522C24.9077 15.9193 24.9973 16.3068 25.1103 16.6843L26.0683 16.3975ZM25.7124 14.2897C25.7032 14.1122 25.6986 13.9323 25.6986 13.75H24.6986C24.6986 13.9492 24.7036 14.1464 24.7137 14.3415L25.7124 14.2897ZM25.6986 13.75C25.6986 13.5676 25.703 13.3878 25.7119 13.2105L24.7132 13.1604C24.7034 13.3548 24.6986 13.5513 24.6986 13.75H25.6986ZM25.8235 12.1431C25.8814 11.7852 25.9595 11.4384 26.0575 11.1025L25.0975 10.8224C24.9877 11.1989 24.9007 11.5859 24.8363 11.9832L25.8235 12.1431ZM26.4211 10.1043C26.5641 9.78059 26.7284 9.46748 26.9141 9.16489L26.0618 8.64182C25.8527 8.98255 25.6675 9.33543 25.5064 9.70033L26.4211 10.1043ZM27.5286 8.2972C27.6396 8.16008 27.7557 8.0253 27.8771 7.89286L27.14 7.21714C27.0049 7.36444 26.8754 7.51474 26.7513 7.66803L27.5286 8.2972ZM27.8746 7.89562C27.995 7.76625 28.1177 7.64242 28.2429 7.52408L27.5558 6.79747C27.4149 6.93077 27.2771 7.06976 27.1425 7.21438L27.8746 7.89562ZM29.0452 6.86307C29.3291 6.66104 29.6241 6.48238 29.9303 6.32687L29.4774 5.43528C29.1266 5.61349 28.7892 5.8179 28.4654 6.0483L29.0452 6.86307ZM30.8852 5.92868C31.2087 5.82112 31.5442 5.7354 31.8919 5.67176L31.7119 4.6881C31.3196 4.75988 30.9388 4.85702 30.5697 4.97977L30.8852 5.92868ZM32.9315 5.54956C33.1044 5.53987 33.2801 5.535 33.4586 5.535V4.535C33.2619 4.535 33.0676 4.54036 32.8756 4.55113L32.9315 5.54956ZM33.4586 5.535C33.6374 5.535 33.8134 5.53996 33.9866 5.54983L34.0435 4.55145C33.8509 4.54047 33.6559 4.535 33.4586 4.535V5.535ZM35.0279 5.67428C35.3759 5.73904 35.7117 5.82626 36.0355 5.93571L36.3557 4.98838C35.9858 4.86331 35.604 4.76431 35.2108 4.69115L35.0279 5.67428ZM36.99 6.34029C37.2956 6.49801 37.5901 6.67916 37.8735 6.88401L38.4592 6.07348C38.136 5.83989 37.7991 5.63254 37.4487 5.45168L36.99 6.34029ZM38.6733 7.55279C38.798 7.67235 38.9203 7.79743 39.0402 7.92809L39.7769 7.25191C39.643 7.10598 39.5059 6.9657 39.3656 6.83113L38.6733 7.55279ZM39.0451 7.93331C39.1687 8.06422 39.287 8.19731 39.4002 8.33259L40.1673 7.69108C40.041 7.54009 39.9093 7.39196 39.7721 7.24669L39.0451 7.93331ZM40.0291 9.19019C40.2204 9.49039 40.3897 9.80054 40.5371 10.1208L41.4455 9.70253C41.2789 9.34084 41.0879 8.99089 40.8724 8.65281L40.0291 9.19019ZM40.9141 11.1119C41.0162 11.4465 41.0975 11.7917 41.158 12.1477L42.1439 11.9803C42.0765 11.5834 41.9854 11.1966 41.8706 10.8201L40.9141 11.1119ZM41.2746 13.2118C41.2839 13.3887 41.2886 13.5681 41.2886 13.75H42.2886C42.2886 13.551 42.2835 13.3541 42.2732 13.1593L41.2746 13.2118ZM41.2886 13.75C41.2886 13.9327 41.284 14.1128 41.275 14.2904L42.2737 14.3414C42.2836 14.1464 42.2886 13.9493 42.2886 13.75H41.2886ZM41.1613 15.3593C41.1022 15.7175 41.0227 16.0646 40.9229 16.4007L41.8815 16.6853C41.9936 16.308 42.0823 15.9201 42.1479 15.522L41.1613 15.3593ZM40.5531 17.3986C40.4079 17.7217 40.2411 18.0344 40.0526 18.3365L40.901 18.8659C41.1133 18.5255 41.3014 18.173 41.4652 17.8084L40.5531 17.3986ZM39.4301 19.2016C39.3178 19.3382 39.2003 19.4724 39.0775 19.6044L39.8096 20.2856C39.9461 20.139 40.0771 19.9893 40.2025 19.8367L39.4301 19.2016ZM39.075 19.6071C38.9562 19.7367 38.835 19.8606 38.7113 19.9791L39.4031 20.7013C39.5427 20.5675 39.6791 20.428 39.8121 20.2829L39.075 19.6071ZM37.9172 20.6405C37.6359 20.8424 37.3432 21.021 37.0389 21.1763L37.4935 22.067C37.8431 21.8885 38.1787 21.6837 38.5004 21.4528L37.9172 20.6405ZM36.0897 21.5735C35.7682 21.6805 35.4344 21.7659 35.088 21.8292L35.2678 22.8129C35.6589 22.7414 36.0383 22.6446 36.4057 22.5222L36.0897 21.5735ZM34.0532 21.9506C33.8812 21.9602 33.7063 21.965 33.5286 21.965V22.965C33.7244 22.965 33.9179 22.9597 34.109 22.949L34.0532 21.9506ZM33.5286 21.965C33.3494 21.965 33.1729 21.9601 32.9992 21.9503L32.943 22.9487C33.1359 22.9596 33.3311 22.965 33.5286 22.965V21.965ZM31.9548 21.8273C31.6056 21.7633 31.2684 21.6772 30.9429 21.5692L30.6278 22.5182C30.9987 22.6414 31.3811 22.7388 31.7746 22.8109L31.9548 21.8273ZM29.9823 21.17C29.6742 21.0143 29.377 20.8355 29.0905 20.6334L28.514 21.4505C28.84 21.6804 29.1791 21.8845 29.5313 22.0625L29.9823 21.17ZM28.28 19.9728C28.1534 19.8546 28.0291 19.7309 27.9071 19.6017L27.18 20.2883C27.3161 20.4324 27.4553 20.5709 27.5976 20.7037L28.28 19.9728ZM42.6636 22.71L43.3774 23.4103L42.6636 22.71ZM24.2886 22.745L23.5747 23.4453L24.2886 22.745ZM24.3236 4.79L23.6097 4.08966L24.3236 4.79ZM42.6986 4.755L43.4124 4.05472L42.6986 4.755ZM27.5436 19.945L26.8068 20.6212L26.8116 20.6264L26.8165 20.6316L27.5436 19.945ZM39.4436 19.945L38.7115 19.2638L38.7064 19.2693L39.4436 19.945ZM39.4086 7.59L38.6718 8.26618L38.6766 8.27144L38.6815 8.27662L39.4086 7.59ZM27.5086 7.555L26.7765 6.87375L26.7714 6.87927L27.5086 7.555ZM41.9497 22.0097C41.8386 22.1229 41.7262 22.2332 41.6125 22.3405L42.9856 23.7948C43.118 23.6697 43.2486 23.5416 43.3774 23.4103L41.9497 22.0097ZM40.9038 22.9585C40.6582 23.1557 40.4069 23.3407 40.1499 23.5136L41.2665 25.1729C41.5707 24.9682 41.8672 24.7498 42.156 24.5179L40.9038 22.9585ZM39.3534 24.001C39.0812 24.1517 38.8028 24.2903 38.518 24.4169L39.3305 26.2445C39.6684 26.0942 39.999 25.9297 40.3221 25.7508L39.3534 24.001ZM37.6484 24.7594C37.3557 24.8604 37.0563 24.95 36.7501 25.028L37.2441 26.9661C37.6029 26.8746 37.9552 26.7693 38.301 26.6499L37.6484 24.7594ZM35.8287 25.2244C35.5222 25.2774 35.2092 25.3197 34.8896 25.3513L35.086 27.3416C35.4527 27.3054 35.8139 27.2566 36.1695 27.1951L35.8287 25.2244ZM33.938 25.4126C33.7797 25.4175 33.6199 25.42 33.4586 25.42V27.42C33.6405 27.42 33.8212 27.4172 34.0006 27.4116L33.938 25.4126ZM33.4586 25.42C33.2978 25.42 33.1387 25.4176 32.981 25.4127L32.9192 27.4117C33.0978 27.4172 33.2776 27.42 33.4586 27.42V25.42ZM32.0333 25.3524C31.7148 25.3214 31.403 25.2798 31.0978 25.2276L30.761 27.199C31.1148 27.2595 31.4743 27.3075 31.8393 27.343L32.0333 25.3524ZM30.1799 25.0343C29.8748 24.9573 29.5765 24.869 29.285 24.7694L28.6381 26.6619C28.9825 26.7796 29.3335 26.8835 29.691 26.9736L30.1799 25.0343ZM28.4186 24.4313C28.1347 24.3061 27.8574 24.1691 27.5864 24.0201L26.6227 25.7726C26.9449 25.9497 27.2746 26.1127 27.6118 26.2613L28.4186 24.4313ZM26.7932 23.5375C26.5371 23.366 26.287 23.1826 26.0427 22.987L24.7927 24.5483C25.0808 24.7789 25.3766 24.9959 25.6803 25.1993L26.7932 23.5375ZM25.3376 22.3735C25.2246 22.2669 25.1128 22.1573 25.0024 22.0447L23.5747 23.4453C23.703 23.5761 23.8332 23.7038 23.9652 23.8284L25.3376 22.3735ZM25.0024 22.0447C24.8937 21.9339 24.7877 21.822 24.6846 21.709L23.2078 23.0578C23.3272 23.1885 23.4495 23.3177 23.5747 23.4453L25.0024 22.0447ZM24.0897 21.0072C23.8993 20.7644 23.7206 20.517 23.5534 20.265L21.8869 21.3708C22.0838 21.6675 22.2935 21.9578 22.5161 22.2415L24.0897 21.0072ZM23.0803 19.4844C22.9334 19.2177 22.7982 18.9458 22.6747 18.6687L20.848 19.4832C20.9945 19.8116 21.1546 20.1336 21.3285 20.4493L23.0803 19.4844ZM22.3388 17.8216C22.2391 17.5359 22.1508 17.2446 22.0738 16.9476L20.1378 17.4497C20.2284 17.799 20.3326 18.1425 20.4504 18.4803L22.3388 17.8216ZM21.879 16.0521C21.8262 15.7537 21.7839 15.4496 21.7525 15.1398L19.7627 15.342C19.7991 15.6998 19.848 16.0528 19.9096 16.4008L21.879 16.0521ZM21.691 14.2156C21.6861 14.0617 21.6836 13.9066 21.6836 13.75H19.6836C19.6836 13.9279 19.6864 14.1046 19.6921 14.2804L21.691 14.2156ZM21.6836 13.75C21.6836 13.5942 21.6861 13.4397 21.6913 13.2865L19.6924 13.2196C19.6865 13.3954 19.6836 13.5722 19.6836 13.75H21.6836ZM21.7544 12.3665C21.7867 12.0584 21.83 11.7558 21.8841 11.4585L19.9166 11.1C19.8531 11.4479 19.8027 11.8007 19.7653 12.158L21.7544 12.3665ZM22.0833 10.5674C22.1619 10.2723 22.252 9.98252 22.3535 9.69792L20.4699 9.0256C20.3497 9.36254 20.2432 9.705 20.1506 10.0529L22.0833 10.5674ZM22.6948 8.85519C22.8199 8.57987 22.9569 8.30929 23.1056 8.04342L21.3601 7.06704C21.1844 7.38111 21.0224 7.70127 20.8741 8.02745L22.6948 8.85519ZM23.5829 7.2663C23.7512 7.01558 23.931 6.76901 24.1225 6.52662L22.5531 5.2869C22.3302 5.56909 22.1199 5.85736 21.9223 6.15174L23.5829 7.2663ZM24.7192 5.82597C24.8225 5.71315 24.9285 5.60127 25.0374 5.49034L23.6097 4.08966C23.485 4.21679 23.3631 4.34536 23.2441 4.47536L24.7192 5.82597ZM25.0374 5.49034C25.1485 5.37709 25.2609 5.26681 25.3746 5.15946L24.0015 3.70524C23.8691 3.83029 23.7385 3.95843 23.6097 4.08966L25.0374 5.49034ZM26.0833 4.54155C26.3289 4.34433 26.5802 4.15932 26.8372 3.98639L25.7206 2.32711C25.4164 2.5318 25.1199 2.75016 24.8311 2.98206L26.0833 4.54155ZM27.6337 3.49898C27.9059 3.34831 28.1843 3.20968 28.4691 3.08308L27.6566 1.25554C27.3187 1.40576 26.9881 1.57034 26.665 1.74924L27.6337 3.49898ZM29.3387 2.74064C29.6314 2.63959 29.9308 2.55001 30.237 2.47198L29.743 0.533934C29.3842 0.625382 29.0319 0.730742 28.6861 0.850094L29.3387 2.74064ZM31.1584 2.27563C31.4649 2.22263 31.7779 2.18029 32.0976 2.14874L31.9011 0.158411C31.5344 0.194603 31.1732 0.243386 30.8176 0.304887L31.1584 2.27563ZM33.0491 2.08745C33.2074 2.08249 33.3672 2.08 33.5286 2.08V0.0799996C33.3466 0.0799996 33.1659 0.0828047 32.9865 0.0884301L33.0491 2.08745ZM33.5286 2.08C33.6893 2.08 33.8485 2.08244 34.0061 2.08732L34.0679 0.0882719C33.8893 0.082752 33.7096 0.0799996 33.5286 0.0799996V2.08ZM34.9539 2.14756C35.2723 2.17859 35.5841 2.22024 35.8893 2.27238L36.2262 0.300955C35.8723 0.240494 35.5128 0.192546 35.1478 0.156983L34.9539 2.14756ZM36.8072 2.46574C37.1124 2.54266 37.4106 2.63098 37.7021 2.73061L38.349 0.838116C38.0046 0.720406 37.6536 0.616531 37.2961 0.526405L36.8072 2.46574ZM38.5685 3.06871C38.8524 3.19388 39.1297 3.33094 39.4007 3.47992L40.3644 1.72744C40.0422 1.55025 39.7125 1.38732 39.3753 1.23868L38.5685 3.06871ZM40.194 3.96253C40.45 4.13397 40.7001 4.31742 40.9445 4.51301L42.1944 2.9517C41.9063 2.72111 41.6105 2.50407 41.3068 2.3007L40.194 3.96253ZM41.6495 5.12649C41.7626 5.23314 41.8743 5.34273 41.9847 5.45527L43.4124 4.05472C43.2841 3.92394 43.1539 3.79624 43.0219 3.67165L41.6495 5.12649ZM41.9847 5.45527C42.0934 5.56612 42.1994 5.67803 42.3025 5.79097L43.7793 4.44221C43.6599 4.3115 43.5376 4.18234 43.4124 4.05472L41.9847 5.45527ZM42.8974 6.49284C43.0878 6.73561 43.2665 6.98299 43.4337 7.23499L45.1002 6.12921C44.9033 5.83246 44.6936 5.54224 44.4711 5.25853L42.8974 6.49284ZM43.9068 8.01555C44.0537 8.28229 44.1889 8.55419 44.3125 8.83132L46.1391 8.01681C45.9927 7.68841 45.8325 7.36636 45.6587 7.05071L43.9068 8.01555ZM44.6483 9.67843C44.748 9.96411 44.8363 10.2554 44.9134 10.5524L46.8493 10.0503C46.7587 9.70103 46.6545 9.35746 46.5367 9.01966L44.6483 9.67843ZM45.1081 11.4479C45.161 11.7463 45.2032 12.0504 45.2347 12.3602L47.2244 12.158C47.1881 11.8002 47.1391 11.4472 47.0775 11.0992L45.1081 11.4479ZM45.2961 13.2844C45.3011 13.4383 45.3036 13.5934 45.3036 13.75H47.3036C47.3036 13.5721 47.3007 13.3953 47.295 13.2196L45.2961 13.2844ZM45.3036 13.75C45.3036 13.9058 45.301 14.0603 45.2958 14.2135L47.2947 14.2804C47.3006 14.1046 47.3036 13.9278 47.3036 13.75H45.3036ZM45.2327 15.1335C45.2004 15.4416 45.1571 15.7442 45.103 16.0415L47.0706 16.4C47.134 16.0521 47.1844 15.6993 47.2218 15.342L45.2327 15.1335ZM44.9038 16.9326C44.8252 17.2277 44.7352 17.5175 44.6336 17.8021L46.5172 18.4744C46.6374 18.1375 46.7439 17.795 46.8365 17.4471L44.9038 16.9326ZM44.2923 18.6448C44.1672 18.9201 44.0302 19.1907 43.8815 19.4566L45.627 20.433C45.8027 20.1189 45.9647 19.7987 46.113 19.4726L44.2923 18.6448ZM43.4042 20.2337C43.2359 20.4844 43.0561 20.731 42.8646 20.9734L44.434 22.2131C44.6569 21.9309 44.8672 21.6426 45.0648 21.3483L43.4042 20.2337ZM42.268 21.674C42.1646 21.7868 42.0586 21.8987 41.9497 22.0097L43.3774 23.4103C43.5021 23.2832 43.624 23.1546 43.743 23.0246L42.268 21.674ZM28.2803 19.2688C28.1648 19.143 28.0544 19.0154 27.9491 18.8859L26.3979 20.1484C26.5287 20.3091 26.665 20.4667 26.8068 20.6212L28.2803 19.2688ZM27.3654 18.0694C27.1885 17.7849 27.0321 17.4916 26.8958 17.1893L25.0724 18.011C25.2453 18.3947 25.4436 18.7663 25.6671 19.1256L27.3654 18.0694ZM26.5473 16.2541C26.4527 15.9382 26.3771 15.6119 26.3208 15.2748L24.3481 15.6044C24.4179 16.0218 24.5121 16.4297 24.6313 16.8278L26.5473 16.2541ZM26.2117 14.2638C26.203 14.0952 26.1986 13.9239 26.1986 13.75H24.1986C24.1986 13.9577 24.2038 14.1635 24.2144 14.3674L26.2117 14.2638ZM26.1986 13.75C26.1986 13.5758 26.2028 13.4043 26.2113 13.2355L24.2138 13.1354C24.2036 13.3383 24.1986 13.5432 24.1986 13.75H26.1986ZM26.317 12.2231C26.3718 11.8848 26.4454 11.5581 26.5375 11.2425L24.6175 10.6824C24.5018 11.0792 24.4103 11.4863 24.3428 11.9032L26.317 12.2231ZM26.8785 10.3064C27.0124 10.0032 27.1663 9.70995 27.3403 9.42643L25.6357 8.38028C25.4149 8.74008 25.2192 9.11285 25.049 9.49833L26.8785 10.3064ZM27.9172 8.61178C28.0216 8.48275 28.1311 8.35573 28.2457 8.23072L26.7714 6.87927C26.6296 7.03401 26.4933 7.19207 26.3627 7.35345L27.9172 8.61178ZM28.2406 8.23623C28.3539 8.1145 28.4692 7.99825 28.5864 7.88738L27.2123 6.43417C27.0634 6.57495 26.9182 6.72151 26.7765 6.87377L28.2406 8.23623ZM29.3351 7.27045C29.5991 7.0826 29.8729 6.91683 30.1567 6.77267L29.251 4.98949C28.8778 5.17904 28.5192 5.39634 28.1755 5.64092L29.3351 7.27045ZM31.0429 6.40314C31.3436 6.30316 31.6564 6.22316 31.9819 6.1636L31.622 4.19626C31.2074 4.27212 30.8038 4.37497 30.4119 4.50531L31.0429 6.40314ZM32.9595 6.04878C33.1229 6.03962 33.2892 6.035 33.4586 6.035V4.035C33.2528 4.035 33.0491 4.04061 32.8476 4.05192L32.9595 6.04878ZM33.4586 6.035C33.6281 6.035 33.7946 6.0397 33.9581 6.04902L34.072 4.05227C33.8696 4.04073 33.6651 4.035 33.4586 4.035V6.035ZM34.9364 6.16584C35.2619 6.2264 35.5747 6.30773 35.8754 6.40937L36.5159 4.51471C36.1228 4.38184 35.7181 4.27695 35.3022 4.19958L34.9364 6.16584ZM36.7607 6.7846C37.0438 6.93074 37.3171 7.0988 37.5807 7.28927L38.7521 5.66822C38.409 5.42026 38.0509 5.19981 37.678 5.00737L36.7607 6.7846ZM38.3272 7.91362C38.444 8.02568 38.5589 8.14316 38.6718 8.26618L40.1453 6.91382C40.0043 6.76025 39.8598 6.61238 39.7117 6.4703L38.3272 7.91362ZM38.6815 8.27662C38.7984 8.40034 38.9101 8.52593 39.0166 8.65335L40.5508 7.37033C40.418 7.21148 40.2796 7.05584 40.1356 6.90338L38.6815 8.27662ZM39.6074 9.45888C39.7866 9.74013 39.945 10.0304 40.0829 10.3299L41.8996 9.49342C41.7235 9.11098 41.5216 8.74115 41.2941 8.38412L39.6074 9.45888ZM40.4358 11.2578C40.5315 11.5715 40.608 11.8959 40.665 12.2315L42.6368 11.8966C42.5659 11.4792 42.47 11.0716 42.3488 10.6742L40.4358 11.2578ZM40.7753 13.2381C40.7841 13.406 40.7886 13.5767 40.7886 13.75H42.7886C42.7886 13.5424 42.7832 13.3368 42.7725 13.133L40.7753 13.2381ZM40.7886 13.75C40.7886 13.9244 40.7842 14.096 40.7756 14.265L42.773 14.3668C42.7834 14.1632 42.7886 13.9576 42.7886 13.75H40.7886ZM40.6679 15.278C40.6122 15.6162 40.5373 15.9429 40.4436 16.2584L42.3609 16.8276C42.479 16.4297 42.5723 16.0215 42.6413 15.6033L40.6679 15.278ZM40.097 17.1937C39.9611 17.4961 39.805 17.7888 39.6283 18.0719L41.3252 19.1305C41.5494 18.7711 41.7482 18.3986 41.9213 18.0133L40.097 17.1937ZM39.0439 18.8841C38.9382 19.0126 38.8274 19.1392 38.7115 19.2638L40.1756 20.6262C40.319 20.4722 40.4567 20.3149 40.5888 20.1542L39.0439 18.8841ZM38.7064 19.2693C38.5948 19.391 38.4812 19.5072 38.3655 19.618L39.7489 21.0624C39.8966 20.9209 40.0405 20.7737 40.1807 20.6207L38.7064 19.2693ZM37.6256 20.2343C37.3645 20.4218 37.0932 20.5872 36.8115 20.731L37.7209 22.5123C38.093 22.3223 38.4501 22.1044 38.792 21.859L37.6256 20.2343ZM35.9316 21.0991C35.6332 21.1985 35.3222 21.2781 34.9981 21.3373L35.3577 23.3047C35.7711 23.2292 36.1733 23.1266 36.5637 22.9966L35.9316 21.0991ZM34.0253 21.4513C33.8628 21.4604 33.6972 21.465 33.5286 21.465V23.465C33.7335 23.465 33.9363 23.4594 34.1369 23.4482L34.0253 21.4513ZM33.5286 21.465C33.3585 21.465 33.1914 21.4603 33.0273 21.4511L32.9149 23.4479C33.1174 23.4593 33.322 23.465 33.5286 23.465V21.465ZM32.0448 21.3355C31.7179 21.2756 31.4033 21.1952 31.1004 21.0946L30.4703 22.9928C30.8639 23.1234 31.2688 23.2266 31.6845 23.3027L32.0448 21.3355ZM30.2078 20.7237C29.9218 20.5792 29.6455 20.4131 29.3787 20.2248L28.2258 21.8591C28.5714 22.1029 28.9315 22.3196 29.3057 22.5087L30.2078 20.7237ZM28.6212 19.6073C28.5024 19.4964 28.3855 19.3801 28.2706 19.2584L26.8165 20.6316C26.9597 20.7832 27.1063 20.9291 27.2564 21.0692L28.6212 19.6073ZM54.2699 22.85L53.9111 23.1983L53.9146 23.2018L54.2699 22.85ZM54.3399 4.79L53.9813 4.44155L53.9796 4.44331L54.3399 4.79ZM68.6549 1.92L68.4744 2.38633L68.481 2.38878L68.6549 1.92ZM72.8199 4.405L73.203 4.7263L73.5236 4.34397L73.142 4.02254L72.8199 4.405ZM70.0899 7.66L69.7631 8.03841L70.147 8.36998L70.473 7.9813L70.0899 7.66ZM66.9749 5.7L66.7766 6.1592L66.7892 6.16424L66.9749 5.7ZM57.5599 7.59L57.189 7.25467L57.1865 7.2575L57.5599 7.59ZM57.5949 20.05L57.2287 20.3904L57.2311 20.393L57.5949 20.05ZM69.5299 20.645L69.829 21.0457L70.0299 20.8957V20.645H69.5299ZM69.5299 16.06H70.0299V15.56H69.5299V16.06ZM63.2649 16.06H62.7649V16.56H63.2649V16.06ZM63.2649 12.315V11.815H62.7649V12.315H63.2649ZM73.6949 12.315H74.1949V11.815H73.6949V12.315ZM73.6949 22.605L74.0205 22.9844L74.1949 22.8348V22.605H73.6949ZM63.4749 25.92C63.3089 25.92 63.1444 25.9176 62.9814 25.9129L62.9525 26.9125C63.1252 26.9175 63.2994 26.92 63.4749 26.92V25.92ZM61.9994 25.8544C61.6683 25.8241 61.344 25.7834 61.0264 25.7323L60.8675 26.7196C61.2083 26.7744 61.5552 26.8179 61.9084 26.8502L61.9994 25.8544ZM60.0677 25.5417C59.7475 25.4653 59.4348 25.3775 59.1293 25.2783L58.8204 26.2294C59.1518 26.3371 59.4903 26.432 59.8358 26.5144L60.0677 25.5417ZM58.2179 24.9394C57.918 24.813 57.6255 24.6744 57.3406 24.5237L56.873 25.4076C57.184 25.5722 57.5029 25.7233 57.8297 25.8609L58.2179 24.9394ZM56.5041 24.0324C56.2335 23.8568 55.9701 23.6688 55.714 23.4685L55.0979 24.2561C55.377 24.4744 55.6643 24.6795 55.9597 24.8712L56.5041 24.0324ZM54.9749 22.8373C54.8567 22.7272 54.7401 22.6142 54.6252 22.4982L53.9146 23.2018C54.039 23.3275 54.1655 23.4501 54.2939 23.5695L54.9749 22.8373ZM54.6286 22.5017C54.5162 22.3859 54.4066 22.2686 54.3 22.1499L53.5562 22.8183C53.6715 22.9467 53.7898 23.0734 53.9111 23.1983L54.6286 22.5017ZM53.6869 21.4106C53.4917 21.1548 53.3085 20.8929 53.1372 20.6247L52.2945 21.163C52.4809 21.4548 52.68 21.7396 52.8919 22.0172L53.6869 21.4106ZM52.6561 19.796C52.5079 19.5137 52.3715 19.2248 52.2471 18.9294L51.3255 19.3177C51.4609 19.639 51.6093 19.9534 51.7707 20.2609L52.6561 19.796ZM51.9116 18.0305C51.813 17.7288 51.7256 17.4206 51.6496 17.1059L50.6775 17.3406C50.7596 17.6806 50.8541 18.0141 50.9612 18.3414L51.9116 18.0305ZM51.4589 16.1615C51.4075 15.8482 51.3666 15.5288 51.3361 15.2032L50.3405 15.2964C50.373 15.6443 50.4169 15.9866 50.4721 16.3233L51.4589 16.1615ZM51.2771 14.236C51.2723 14.0754 51.2699 13.9134 51.2699 13.75H50.2699C50.2699 13.9232 50.2724 14.0951 50.2775 14.2657L51.2771 14.236ZM51.2699 13.75C51.2699 13.5891 51.2725 13.4295 51.2777 13.2711L50.2782 13.2384C50.2727 13.4078 50.2699 13.5784 50.2699 13.75H51.2699ZM51.3416 12.3182C51.3743 11.9985 51.4183 11.684 51.4734 11.3748L50.4889 11.1994C50.4293 11.5335 50.382 11.8725 50.3468 12.2163L51.3416 12.3182ZM51.6762 10.4462C51.7564 10.1381 51.8483 9.83542 51.9521 9.53798L51.008 9.20853C50.8952 9.53176 50.7953 9.8604 50.7084 10.1944L51.6762 10.4462ZM52.3012 8.65622C52.4295 8.36777 52.5697 8.08443 52.722 7.80617L51.8448 7.32607C51.6794 7.62833 51.5269 7.9363 51.3875 8.24996L52.3012 8.65622ZM53.2112 6.99242C53.3838 6.72978 53.568 6.47183 53.764 6.21859L52.9731 5.6066C52.7617 5.87987 52.5624 6.15877 52.3755 6.4433L53.2112 6.99242ZM54.3747 5.48674C54.4805 5.36898 54.5889 5.25229 54.7002 5.13669L53.9796 4.44331C53.8605 4.56713 53.7441 4.69227 53.6306 4.81874L54.3747 5.48674ZM54.6985 5.13844C54.812 5.02158 54.9269 4.90767 55.0432 4.7967L54.3527 4.07335C54.2273 4.19308 54.1035 4.31582 53.9813 4.44156L54.6985 5.13844ZM55.769 4.15623C56.021 3.95115 56.2788 3.7585 56.5426 3.57823L55.9783 2.75267C55.6912 2.94888 55.411 3.15821 55.1378 3.38059L55.769 4.15623ZM57.3614 3.06876C57.6416 2.91085 57.9281 2.76555 58.2209 2.63282L57.808 1.72204C57.4886 1.86682 57.1761 2.02534 56.8705 2.19757L57.3614 3.06876ZM59.1156 2.27329C59.417 2.16704 59.7247 2.07296 60.039 1.99106L59.7868 1.02339C59.4458 1.11224 59.1113 1.21449 58.7831 1.33018L59.1156 2.27329ZM60.9843 1.78493C61.2986 1.72929 61.619 1.68493 61.9455 1.65191L61.8449 0.656985C61.4943 0.69244 61.1493 0.740173 60.81 0.800247L60.9843 1.78493ZM62.9167 1.58778C63.078 1.5826 63.2407 1.58 63.4049 1.58V0.58C63.2302 0.58 63.0567 0.582762 62.8846 0.588296L62.9167 1.58778ZM63.4049 1.58C63.5518 1.58 63.6969 1.58146 63.8404 1.58439L63.8608 0.584598C63.7104 0.581531 63.5584 0.58 63.4049 0.58V1.58ZM64.7081 1.62119C65.0033 1.64053 65.2905 1.66665 65.5697 1.6995L65.6866 0.706343C65.3894 0.671393 65.085 0.643741 64.7735 0.623328L64.7081 1.62119ZM66.4218 1.8249C66.7107 1.87646 66.9898 1.93606 67.2594 2.0036L67.5024 1.03358C67.2095 0.960199 66.9079 0.895858 66.5975 0.840459L66.4218 1.8249ZM68.0762 2.24231C68.2118 2.288 68.3445 2.336 68.4744 2.38628L68.8354 1.45372C68.6914 1.39799 68.5448 1.34499 68.3956 1.2947L68.0762 2.24231ZM68.481 2.38878C68.6628 2.45621 68.8437 2.52849 69.0237 2.60561L69.4175 1.68639C69.2224 1.60283 69.0262 1.52444 68.8288 1.45122L68.481 2.38878ZM70.0769 3.11748C70.4152 3.30179 70.7505 3.50406 71.0829 3.72444L71.6355 2.89101C71.2798 2.65518 70.9198 2.43792 70.5554 2.23936L70.0769 3.11748ZM72.0388 4.41471C72.1925 4.53492 72.3455 4.65916 72.4978 4.78745L73.142 4.02254C72.9806 3.88666 72.8183 3.75483 72.655 3.62708L72.0388 4.41471ZM72.4368 4.08369L72.0955 4.49057L72.8617 5.13318L73.203 4.7263L72.4368 4.08369ZM71.413 5.30432L70.7305 6.11807L71.4967 6.76068L72.1792 5.94693L71.413 5.30432ZM70.048 6.93182L69.7068 7.33869L70.473 7.9813L70.8142 7.57443L70.048 6.93182ZM70.4167 7.28159C70.2947 7.17625 70.1725 7.07398 70.0499 6.97477L69.4208 7.75212C69.5349 7.84445 69.649 7.93988 69.7631 8.03841L70.4167 7.28159ZM69.2832 6.39736C69.0137 6.20939 68.7426 6.03606 68.4699 5.87753L67.9673 6.74204C68.2151 6.88613 68.4631 7.04458 68.7112 7.21759L69.2832 6.39736ZM67.6087 5.42873C67.4598 5.36003 67.3104 5.29569 67.1606 5.23576L66.7892 6.16424C66.9227 6.21764 67.0562 6.27514 67.1898 6.33676L67.6087 5.42873ZM67.1731 5.24097C67.0176 5.17384 66.858 5.11164 66.6942 5.05432L66.3639 5.9982C66.5061 6.04795 66.6436 6.10158 66.7767 6.15903L67.1731 5.24097ZM65.7138 4.77947C65.3954 4.71028 65.0642 4.65603 64.7204 4.61639L64.6059 5.60982C64.9192 5.64594 65.2177 5.69499 65.5014 5.75666L65.7138 4.77947ZM63.7259 4.5434C63.5631 4.53779 63.3977 4.535 63.2299 4.535V5.535C63.3866 5.535 63.5405 5.53761 63.6915 5.54281L63.7259 4.5434ZM63.2299 4.535C63.0392 4.535 62.8505 4.54084 62.6638 4.55257L62.7266 5.5506C62.8918 5.54022 63.0596 5.535 63.2299 5.535V4.535ZM61.5361 4.70058C61.159 4.77724 60.7921 4.88058 60.4356 5.01074L60.7786 5.95008C61.0874 5.83732 61.4062 5.74743 61.7353 5.68053L61.5361 4.70058ZM59.3936 5.48412C59.0631 5.66567 58.744 5.87282 58.4365 6.10521L59.0394 6.90303C59.3094 6.69896 59.588 6.51826 59.875 6.3606L59.3936 5.48412ZM57.5793 6.84725C57.4467 6.97776 57.3166 7.11359 57.189 7.25468L57.9308 7.92532C58.0456 7.79832 58.1622 7.67659 58.2806 7.5601L57.5793 6.84725ZM57.1865 7.2575C57.0548 7.40534 56.9285 7.55588 56.8074 7.70911L57.592 8.32905C57.7007 8.19145 57.8145 8.05593 57.9333 7.9225L57.1865 7.2575ZM56.1334 8.67992C55.9281 9.01938 55.7462 9.36988 55.5876 9.7313L56.5033 10.1331C56.6443 9.81171 56.8062 9.4998 56.9891 9.1973L56.1334 8.67992ZM55.1832 10.8443C55.0739 11.2186 54.9873 11.6025 54.9231 11.9959L55.91 12.157C55.9678 11.8028 56.0456 11.4587 56.1432 11.1246L55.1832 10.8443ZM54.7996 13.1645C54.7898 13.3577 54.7849 13.5529 54.7849 13.75H55.7849C55.7849 13.5694 55.7894 13.3911 55.7983 13.2152L54.7996 13.1645ZM54.7849 13.75C54.7849 13.9513 54.7895 14.1503 54.7988 14.3469L55.7977 14.2996C55.7892 14.1192 55.7849 13.936 55.7849 13.75H54.7849ZM54.9174 15.5397C54.9798 15.9441 55.0644 16.3371 55.1714 16.7184L56.1342 16.4481C56.0384 16.107 55.9622 15.7534 55.9056 15.3871L54.9174 15.5397ZM55.5746 17.8611C55.7354 18.2349 55.9208 18.595 56.1307 18.9411L56.9858 18.4225C56.8 18.1163 56.6358 17.7974 56.4932 17.4659L55.5746 17.8611ZM56.8307 19.9332C56.9576 20.0891 57.0903 20.2416 57.2287 20.3904L57.9611 19.7096C57.8375 19.5766 57.7193 19.4408 57.6065 19.3021L56.8307 19.9332ZM57.2311 20.393C57.3676 20.5378 57.5078 20.6767 57.6517 20.8098L58.3307 20.0757C58.2038 19.9584 58.0798 19.8355 57.9587 19.707L57.2311 20.393ZM58.5794 21.5513C58.9078 21.7762 59.2512 21.9751 59.6095 22.1478L60.0438 21.247C59.731 21.0962 59.4313 20.9227 59.1445 20.7263L58.5794 21.5513ZM60.715 22.5831C61.0857 22.6988 61.4689 22.7902 61.8644 22.8576L62.0323 21.8718C61.6791 21.8116 61.3394 21.7304 61.0129 21.6285L60.715 22.5831ZM63.031 22.9851C63.2231 22.995 63.4178 23 63.6149 23V22C63.4346 22 63.2572 21.9955 63.0828 21.9864L63.031 22.9851ZM63.6149 23C63.7991 23 63.9815 22.9961 64.1622 22.9884L64.1194 21.9893C63.9533 21.9964 63.7851 22 63.6149 22V23ZM65.256 22.8911C65.6255 22.8404 65.9867 22.772 66.3397 22.6857L66.1021 21.7143C65.7837 21.7922 65.4564 21.8543 65.1201 21.9004L65.256 22.8911ZM67.3988 22.3636C67.7476 22.2356 68.0868 22.0884 68.4164 21.9219L67.9654 21.0293C67.6707 21.1783 67.3671 21.3101 67.0545 21.4247L67.3988 22.3636ZM69.3756 21.3645C69.5292 21.2629 69.6804 21.1566 69.829 21.0457L69.2308 20.2443C69.0972 20.344 68.9616 20.4394 68.8239 20.5305L69.3756 21.3645ZM70.0299 20.645V20.0719H69.0299V20.645H70.0299ZM70.0299 18.9256V17.7794H69.0299V18.9256H70.0299ZM70.0299 16.6331V16.06H69.0299V16.6331H70.0299ZM69.5299 15.56H69.0078V16.56H69.5299V15.56ZM67.9636 15.56H66.9195V16.56H67.9636V15.56ZM65.8753 15.56H64.8311V16.56H65.8753V15.56ZM63.787 15.56H63.2649V16.56H63.787V15.56ZM63.7649 16.06V15.5919H62.7649V16.06H63.7649ZM63.7649 14.6556V13.7194H62.7649V14.6556H63.7649ZM63.7649 12.7831V12.315H62.7649V12.7831H63.7649ZM63.2649 12.815H63.7864V11.815H63.2649V12.815ZM64.8294 12.815H65.8724V11.815H64.8294V12.815ZM66.9154 12.815H67.9584V11.815H66.9154V12.815ZM69.0014 12.815H70.0444V11.815H69.0014V12.815ZM71.0874 12.815H72.1304V11.815H71.0874V12.815ZM73.1734 12.815H73.6949V11.815H73.1734V12.815ZM73.1949 12.315V12.8295H74.1949V12.315H73.1949ZM73.1949 13.8585V14.8875H74.1949V13.8585H73.1949ZM73.1949 15.9165V16.9455H74.1949V15.9165H73.1949ZM73.1949 17.9745V19.0035H74.1949V17.9745H73.1949ZM73.1949 20.0325V21.0615H74.1949V20.0325H73.1949ZM73.1949 22.0905V22.605H74.1949V22.0905H73.1949ZM73.3692 22.2256C73.2543 22.3242 73.1387 22.4209 73.0225 22.5155L73.6539 23.291C73.7769 23.1908 73.8991 23.0886 74.0205 22.9844L73.3692 22.2256ZM72.3079 23.0664C72.063 23.2448 71.8153 23.4147 71.5649 23.5762L72.1069 24.4166C72.3734 24.2447 72.6366 24.064 72.8966 23.8747L72.3079 23.0664ZM70.7949 24.0413C70.5325 24.1893 70.2673 24.3286 69.9991 24.459L70.4364 25.3583C70.7231 25.2189 71.0064 25.0702 71.2863 24.9123L70.7949 24.0413ZM69.1796 24.8264C68.9025 24.9404 68.6223 25.0454 68.3391 25.1416L68.6604 26.0885C68.9636 25.9856 69.2635 25.8732 69.56 25.7512L69.1796 24.8264ZM67.4802 25.4031C67.1921 25.4811 66.9008 25.5502 66.6063 25.6105L66.807 26.5902C67.1217 26.5257 67.4331 26.4518 67.7413 26.3684L67.4802 25.4031ZM65.7206 25.764C65.4256 25.8061 65.1274 25.8396 64.8261 25.8647L64.909 26.8612C65.2295 26.8346 65.547 26.7989 65.8616 26.7541L65.7206 25.764ZM63.9263 25.9139C63.7766 25.918 63.6261 25.92 63.4749 25.92V26.92C63.635 26.92 63.7945 26.9179 63.9533 26.9136L63.9263 25.9139ZM54.2699 22.85L53.5524 23.5466L53.5593 23.5536L54.2699 22.85ZM54.3399 4.79L53.6227 4.09311L53.6193 4.09662L54.3399 4.79ZM68.6549 1.92L68.2939 2.85266L68.3071 2.85757L68.6549 1.92ZM72.8199 4.405L73.5861 5.04761L74.2274 4.28294L73.464 3.64009L72.8199 4.405ZM70.0899 7.66L69.4363 8.41682L70.2041 9.07996L70.8561 8.30261L70.0899 7.66ZM66.9749 5.7L66.5784 6.61806L66.5909 6.62344L66.6035 6.62848L66.9749 5.7ZM57.5599 7.59L56.8181 6.91933L56.813 6.925L57.5599 7.59ZM57.5949 20.05L56.8624 20.7309L56.8673 20.736L57.5949 20.05ZM69.5299 20.645L70.1281 21.4464L70.5299 21.1464V20.645H69.5299ZM69.5299 16.06H70.5299V15.06H69.5299V16.06ZM63.2649 16.06H62.2649V17.06H63.2649V16.06ZM63.2649 12.315V11.315H62.2649V12.315H63.2649ZM73.6949 12.315H74.6949V11.315H73.6949V12.315ZM73.6949 22.605L74.3462 23.3638L74.6949 23.0645V22.605H73.6949ZM63.4749 25.42C63.3136 25.42 63.1539 25.4177 62.9959 25.4131L62.938 27.4123C63.1157 27.4174 63.2946 27.42 63.4749 27.42V25.42ZM62.045 25.3565C61.7249 25.3272 61.4119 25.2879 61.1059 25.2386L60.7881 27.2132C61.1404 27.2699 61.4987 27.3149 61.8629 27.3482L62.045 25.3565ZM60.1836 25.0553C59.8762 24.982 59.5762 24.8978 59.2837 24.8028L58.6659 26.705C59.0103 26.8168 59.3616 26.9154 59.7199 27.0008L60.1836 25.0553ZM58.4121 24.4786C58.1255 24.3579 57.8463 24.2256 57.5744 24.0817L56.6392 25.8496C56.9633 26.0211 57.2954 26.1784 57.6355 26.3217L58.4121 24.4786ZM56.7762 23.6129C56.5181 23.4454 56.2667 23.266 56.0221 23.0746L54.7898 24.6499C55.0804 24.8773 55.3797 25.0909 55.6875 25.2906L56.7762 23.6129ZM55.3155 22.4711C55.2023 22.3658 55.0906 22.2576 54.9805 22.1464L53.5593 23.5536C53.6885 23.6841 53.8199 23.8115 53.9534 23.9356L55.3155 22.4711ZM54.9874 22.1534C54.8794 22.0422 54.7742 21.9296 54.6719 21.8157L53.1843 23.1525C53.304 23.2857 53.4267 23.4171 53.5524 23.5466L54.9874 22.1534ZM54.0844 21.1072C53.8976 20.8624 53.7223 20.6119 53.5586 20.3556L51.8731 21.4322C52.0671 21.7358 52.2742 22.0319 52.4944 22.3205L54.0844 21.1072ZM53.0988 19.5636C52.9572 19.2938 52.8268 19.0177 52.7078 18.7353L50.8648 19.5118C51.0056 19.8461 51.16 20.1733 51.3281 20.4933L53.0988 19.5636ZM52.3869 17.8751C52.2924 17.5862 52.2086 17.2907 52.1356 16.9885L50.1915 17.458C50.2766 17.8105 50.3747 18.1568 50.4859 18.4968L52.3869 17.8751ZM51.9523 16.0807C51.9029 15.779 51.8634 15.471 51.834 15.1566L49.8427 15.3429C49.8763 15.702 49.9216 16.0558 49.9786 16.4042L51.9523 16.0807ZM51.7768 14.2211C51.7722 14.0656 51.7699 13.9085 51.7699 13.75H49.7699C49.7699 13.928 49.7725 14.1049 49.7777 14.2806L51.7768 14.2211ZM51.7699 13.75C51.7699 13.5945 51.7724 13.4404 51.7774 13.2875L49.7785 13.222C49.7727 13.397 49.7699 13.573 49.7699 13.75H51.7699ZM51.839 12.3691C51.8705 12.0615 51.9127 11.7593 51.9656 11.4624L49.9966 11.1117C49.9349 11.4583 49.8858 11.8095 49.8494 12.1653L51.839 12.3691ZM52.1601 10.5721C52.2369 10.277 52.3249 9.98726 52.4242 9.70271L50.5359 9.0438C50.4186 9.37993 50.3148 9.72153 50.2245 10.0685L52.1601 10.5721ZM52.7581 8.85935C52.8808 8.58351 53.0149 8.31248 53.1606 8.04622L51.4062 7.08603C51.2342 7.40028 51.0757 7.72057 50.9306 8.04683L52.7581 8.85935ZM53.6291 7.26698C53.7945 7.01528 53.9712 6.76781 54.1594 6.52458L52.5777 5.3006C52.3585 5.58389 52.1517 5.87327 51.9576 6.16874L53.6291 7.26698ZM54.7468 5.82074C54.8486 5.70733 54.9532 5.59487 55.0605 5.48338L53.6193 4.09662C53.4962 4.22455 53.3759 4.35392 53.2585 4.48474L54.7468 5.82074ZM55.0571 5.48689C55.1663 5.37446 55.2768 5.26496 55.3884 5.15837L54.0075 3.71168C53.8774 3.83579 53.7492 3.96294 53.6227 4.09311L55.0571 5.48689ZM56.0845 4.54404C56.3259 4.34761 56.5727 4.16331 56.8247 3.991L55.6961 2.33989C55.3974 2.54407 55.1061 2.76175 54.8222 2.99278L56.0845 4.54404ZM57.6069 3.50436C57.8744 3.35361 58.1478 3.21491 58.4273 3.08822L57.6016 1.26664C57.2689 1.41746 56.9433 1.58258 56.625 1.76197L57.6069 3.50436ZM59.2818 2.74485C59.5698 2.64332 59.8642 2.55331 60.1651 2.4749L59.6606 0.53955C59.3064 0.631883 58.9584 0.738216 58.6169 0.858619L59.2818 2.74485ZM61.0715 2.27727C61.3732 2.22385 61.6813 2.18118 61.9958 2.14937L61.7946 0.159522C61.4319 0.196194 61.0747 0.245612 60.7228 0.307904L61.0715 2.27727ZM62.9327 2.08752C63.0886 2.08251 63.246 2.08 63.4049 2.08V0.0799996C63.2249 0.0799996 63.0461 0.0828456 62.8685 0.0885536L62.9327 2.08752ZM63.4049 2.08C63.5484 2.08 63.6902 2.08143 63.8302 2.08429L63.871 0.0847019C63.7171 0.081564 63.5617 0.0799996 63.4049 0.0799996V2.08ZM64.6754 2.12012C64.9624 2.13892 65.241 2.16428 65.5113 2.19607L65.745 0.209767C65.4389 0.173764 65.1259 0.145347 64.8061 0.124398L64.6754 2.12012ZM66.3339 2.31712C66.6121 2.36676 66.88 2.42399 67.1378 2.4886L67.6239 0.548575C67.3194 0.472268 67.0065 0.405556 66.6854 0.34824L66.3339 2.31712ZM67.9165 2.71612C68.0452 2.75951 68.171 2.805 68.2939 2.85257L69.0159 0.987431C68.8649 0.928982 68.7114 0.87348 68.5553 0.820891L67.9165 2.71612ZM68.3071 2.85757C68.4811 2.9221 68.6543 2.99132 68.8269 3.06523L69.6143 1.22678C69.4118 1.14 69.2079 1.05855 69.0027 0.982433L68.3071 2.85757ZM69.8377 3.55653C70.1629 3.73372 70.4859 3.92851 70.8066 4.14115L71.9118 2.47429C71.5445 2.23073 71.1721 2.00598 70.7946 1.80031L69.8377 3.55653ZM71.7307 4.80853C71.8796 4.92496 72.0279 5.04541 72.1758 5.16991L73.464 3.64009C73.2981 3.5004 73.1311 3.36479 72.963 3.23327L71.7307 4.80853ZM72.0537 3.76239L71.7124 4.16926L73.2448 5.45449L73.5861 5.04761L72.0537 3.76239ZM71.0299 4.98301L70.3474 5.79676L71.8798 7.08199L72.5623 6.26824L71.0299 4.98301ZM69.6649 6.61051L69.3237 7.01739L70.8561 8.30261L71.1973 7.89574L69.6649 6.61051ZM70.7435 6.90318C70.6176 6.79444 70.4912 6.68874 70.3644 6.5861L69.1063 8.14079C69.2161 8.22968 69.3261 8.32169 69.4363 8.41682L70.7435 6.90318ZM69.5692 5.98725C69.289 5.7918 69.0063 5.61102 68.7212 5.44527L67.716 7.1743C67.9514 7.31116 68.1878 7.46217 68.4251 7.6277L69.5692 5.98725ZM67.8182 4.97472C67.6616 4.90247 67.5043 4.83472 67.3463 4.77152L66.6035 6.62848C66.7288 6.67861 66.8545 6.73269 66.9803 6.79077L67.8182 4.97472ZM67.3713 4.78194C67.2047 4.70997 67.0339 4.64349 66.8593 4.58238L66.1987 6.47014C66.3301 6.5161 66.4566 6.56545 66.5784 6.61806L67.3713 4.78194ZM65.82 4.29088C65.4843 4.21793 65.1367 4.16108 64.7777 4.11968L64.5486 6.10653C64.8467 6.14089 65.1288 6.18734 65.3952 6.24525L65.82 4.29088ZM63.7431 4.0437C63.5743 4.03789 63.4033 4.035 63.2299 4.035V6.035C63.3811 6.035 63.5292 6.03752 63.6742 6.04251L63.7431 4.0437ZM63.2299 4.035C63.029 4.035 62.8298 4.04115 62.6325 4.05356L62.7579 6.04962C62.9125 6.0399 63.0698 6.035 63.2299 6.035V4.035ZM61.4364 4.2106C61.0354 4.29214 60.6444 4.40222 60.2642 4.54107L60.9501 6.41975C61.2351 6.31569 61.5299 6.23253 61.8349 6.17051L61.4364 4.2106ZM59.1528 5.04588C58.8006 5.23937 58.4613 5.45975 58.1351 5.7063L59.3408 7.30194C59.5922 7.11202 59.8504 6.94456 60.1157 6.79884L59.1528 5.04588ZM57.2287 6.49083C57.0889 6.62835 56.952 6.77122 56.8181 6.91935L58.3017 8.26065C58.4101 8.14068 58.52 8.026 58.6313 7.91653L57.2287 6.49083ZM56.813 6.925C56.675 7.08005 56.5423 7.23809 56.4151 7.39914L57.9844 8.63901C58.0869 8.50924 58.1943 8.38123 58.3067 8.255L56.813 6.925ZM55.7055 8.42123C55.4891 8.77917 55.2971 9.14896 55.1297 9.5304L56.9612 10.334C57.0934 10.0326 57.2453 9.74002 57.417 9.45599L55.7055 8.42123ZM54.7033 10.7041C54.5881 11.0985 54.497 11.5023 54.4296 11.9153L56.4035 12.2375C56.4581 11.9029 56.5314 11.5788 56.6231 11.2648L54.7033 10.7041ZM54.3002 13.1392C54.29 13.341 54.2849 13.5446 54.2849 13.75H56.2849C56.2849 13.5777 56.2892 13.4079 56.2976 13.2405L54.3002 13.1392ZM54.2849 13.75C54.2849 13.959 54.2897 14.1659 54.2994 14.3706L56.2972 14.276C56.289 14.1036 56.2849 13.9283 56.2849 13.75H54.2849ZM54.4232 15.616C54.4886 16.0395 54.5774 16.4521 54.69 16.8535L56.6156 16.313C56.5255 15.992 56.4534 15.658 56.3998 15.3109L54.4232 15.616ZM55.1153 18.0586C55.2852 18.4536 55.4812 18.8344 55.7032 19.2004L57.4133 18.1632C57.2396 17.8769 57.086 17.5787 56.9525 17.2683L55.1153 18.0586ZM56.4429 20.2487C56.5768 20.4133 56.7167 20.574 56.8625 20.7308L58.3273 19.3692C58.2111 19.2441 58.1001 19.1166 57.9944 18.9866L56.4429 20.2487ZM56.8673 20.736C57.0115 20.8889 57.1597 21.0359 57.3121 21.1769L58.6702 19.7087C58.5519 19.5992 58.436 19.4844 58.3225 19.364L56.8673 20.736ZM58.2969 21.9638C58.6461 22.203 59.0113 22.4145 59.3924 22.5982L60.2609 20.7966C59.9708 20.6568 59.693 20.4959 59.427 20.3137L58.2969 21.9638ZM60.566 23.0604C60.9588 23.183 61.3638 23.2795 61.7804 23.3505L62.1162 21.3789C61.7841 21.3223 61.4662 21.2462 61.1619 21.1513L60.566 23.0604ZM63.0051 23.4844C63.2061 23.4948 63.4094 23.5 63.6149 23.5V21.5C63.443 21.5 63.2743 21.4957 63.1087 21.4871L63.0051 23.4844ZM63.6149 23.5C63.8061 23.5 63.9956 23.496 64.1836 23.4879L64.098 21.4898C63.9392 21.4966 63.7781 21.5 63.6149 21.5V23.5ZM65.324 23.3865C65.71 23.3335 66.0882 23.2619 66.4585 23.1713L65.9833 21.2286C65.6821 21.3023 65.3718 21.3612 65.0522 21.405L65.324 23.3865ZM67.571 22.833C67.9379 22.6984 68.2949 22.5435 68.6419 22.3681L67.7398 20.5831C67.4626 20.7232 67.1768 20.8473 66.8823 20.9553L67.571 22.833ZM69.6514 21.7816C69.813 21.6747 69.9719 21.5629 70.1281 21.4464L68.9317 19.8436C68.8057 19.9377 68.6778 20.0277 68.548 20.1135L69.6514 21.7816ZM70.5299 20.645V20.0719H68.5299V20.645H70.5299ZM70.5299 18.9256V17.7794H68.5299V18.9256H70.5299ZM70.5299 16.6331V16.06H68.5299V16.6331H70.5299ZM69.5299 15.06H69.0078V17.06H69.5299V15.06ZM67.9636 15.06H66.9195V17.06H67.9636V15.06ZM65.8753 15.06H64.8311V17.06H65.8753V15.06ZM63.787 15.06H63.2649V17.06H63.787V15.06ZM64.2649 16.06V15.5919H62.2649V16.06H64.2649ZM64.2649 14.6556V13.7194H62.2649V14.6556H64.2649ZM64.2649 12.7831V12.315H62.2649V12.7831H64.2649ZM63.2649 13.315H63.7864V11.315H63.2649V13.315ZM64.8294 13.315H65.8724V11.315H64.8294V13.315ZM66.9154 13.315H67.9584V11.315H66.9154V13.315ZM69.0014 13.315H70.0444V11.315H69.0014V13.315ZM71.0874 13.315H72.1304V11.315H71.0874V13.315ZM73.1734 13.315H73.6949V11.315H73.1734V13.315ZM72.6949 12.315V12.8295H74.6949V12.315H72.6949ZM72.6949 13.8585V14.8875H74.6949V13.8585H72.6949ZM72.6949 15.9165V16.9455H74.6949V15.9165H72.6949ZM72.6949 17.9745V19.0035H74.6949V17.9745H72.6949ZM72.6949 20.0325V21.0615H74.6949V20.0325H72.6949ZM72.6949 22.0905V22.605H74.6949V22.0905H72.6949ZM73.0436 21.8462C72.9319 21.942 72.8196 22.0359 72.7067 22.1278L73.9696 23.6787C74.096 23.5758 74.2215 23.4708 74.3462 23.3638L73.0436 21.8462ZM72.0135 22.6622C71.7761 22.8351 71.5362 22.9997 71.2939 23.156L72.3779 24.8368C72.6525 24.6597 72.9235 24.4737 73.191 24.2789L72.0135 22.6622ZM70.5492 23.6059C70.2956 23.7489 70.0394 23.8834 69.7804 24.0093L70.6551 25.8079C70.951 25.664 71.2433 25.5106 71.532 25.3477L70.5492 23.6059ZM68.9894 24.364C68.722 24.474 68.4517 24.5753 68.1784 24.6681L68.8211 26.562C69.1343 26.4557 69.444 26.3396 69.7502 26.2136L68.9894 24.364ZM67.3496 24.9205C67.0716 24.9957 66.7904 25.0624 66.506 25.1207L66.9074 27.08C67.2321 27.0135 67.5536 26.9372 67.8719 26.8511L67.3496 24.9205ZM65.6501 25.269C65.3649 25.3097 65.0764 25.3421 64.7847 25.3664L64.9504 27.3595C65.2805 27.3321 65.6078 27.2953 65.9321 27.2491L65.6501 25.269ZM63.9128 25.4141C63.7677 25.418 63.6217 25.42 63.4749 25.42V27.42C63.6395 27.42 63.8034 27.4178 63.9668 27.4134L63.9128 25.4141ZM100.546 22.71L100.903 23.0602V23.0602L100.546 22.71ZM82.1712 22.745L81.8142 23.0951V23.0951L82.1712 22.745ZM82.2062 4.79L81.8493 4.43983L82.2062 4.79ZM100.581 4.755L100.938 4.40486L100.581 4.755ZM85.4262 19.945L85.0578 20.2831L85.0627 20.2883L85.4262 19.945ZM97.3262 19.945L96.9601 19.6044L96.9576 19.6071L97.3262 19.945ZM97.2912 7.59L96.9228 7.92812L96.9277 7.93331L97.2912 7.59ZM85.3912 7.555L85.0251 7.21438L85.0226 7.21714L85.3912 7.555ZM100.189 22.3598C100.074 22.4776 99.9568 22.5923 99.8384 22.7041L100.525 23.4312C100.653 23.3106 100.779 23.1869 100.903 23.0602L100.189 22.3598ZM99.0995 23.3483C98.8431 23.5542 98.5805 23.7476 98.3117 23.9284L98.87 24.7581C99.1624 24.5613 99.4476 24.3513 99.7256 24.1281L99.0995 23.3483ZM97.4782 24.4385C97.1933 24.5962 96.9018 24.7413 96.6038 24.8738L97.01 25.7876C97.3346 25.6433 97.6522 25.4852 97.9625 25.3133L97.4782 24.4385ZM95.6942 25.232C95.3882 25.3376 95.0755 25.4311 94.7562 25.5125L95.0032 26.4816C95.3488 26.3935 95.688 26.292 96.0205 26.1773L95.6942 25.232ZM93.7965 25.7171C93.4777 25.7722 93.1527 25.8161 92.8213 25.8488L92.9195 26.844C93.2744 26.809 93.6236 26.7618 93.9669 26.7024L93.7965 25.7171ZM91.8363 25.9123C91.6727 25.9174 91.5077 25.92 91.3412 25.92V26.92C91.5179 26.92 91.6934 26.9173 91.8676 26.9118L91.8363 25.9123ZM91.3412 25.92C91.1754 25.92 91.0111 25.9175 90.8482 25.9124L90.8173 26.912C90.9906 26.9173 91.1652 26.92 91.3412 26.92V25.92ZM89.8674 25.8501C89.5373 25.8179 89.2136 25.7747 88.8962 25.7205L88.7278 26.7062C89.0695 26.7646 89.417 26.8109 89.7704 26.8454L89.8674 25.8501ZM87.9403 25.5191C87.6221 25.4389 87.3106 25.3467 87.0059 25.2425L86.6825 26.1888C87.0136 26.302 87.3514 26.4019 87.6959 26.4888L87.9403 25.5191ZM86.0995 24.8888C85.8023 24.7578 85.5119 24.6142 85.2281 24.4582L84.7463 25.3344C85.0556 25.5046 85.3723 25.661 85.6961 25.8038L86.0995 24.8888ZM84.3976 23.9529C84.1296 23.7735 83.868 23.5817 83.6128 23.3773L82.9878 24.158C83.2649 24.3798 83.5494 24.5884 83.8412 24.7838L84.3976 23.9529ZM82.8771 22.7372C82.7593 22.6261 82.643 22.512 82.5281 22.3949L81.8142 23.0951C81.9381 23.2214 82.0636 23.3445 82.191 23.4646L82.8771 22.7372ZM82.5281 22.3949C82.4153 22.2798 82.3052 22.1636 82.198 22.0462L81.4596 22.7206C81.575 22.8469 81.6932 22.9717 81.8142 23.0951L82.5281 22.3949ZM81.5789 21.3157C81.3805 21.0627 81.194 20.8046 81.0194 20.5415L80.1861 21.0943C80.3756 21.3799 80.5776 21.6594 80.7921 21.9329L81.5789 21.3157ZM80.525 19.7257C80.3714 19.4467 80.2299 19.1623 80.1006 18.8723L79.1873 19.2796C79.328 19.5951 79.4819 19.9047 79.649 20.2081L80.525 19.7257ZM79.7493 17.9863C79.6451 17.6876 79.5528 17.3832 79.4724 17.0732L78.5044 17.3242C78.5916 17.6604 78.6918 17.9909 78.8051 18.3156L79.7493 17.9863ZM79.2693 16.1393C79.2142 15.8285 79.1703 15.5122 79.1376 15.1903L78.1428 15.2914C78.1779 15.6373 78.2252 15.978 78.2846 16.3136L79.2693 16.1393ZM79.0739 14.2318C79.0688 14.0725 79.0662 13.9119 79.0662 13.75H78.0662C78.0662 13.9225 78.0689 14.0939 78.0744 14.2642L79.0739 14.2318ZM79.0662 13.75C79.0662 13.5887 79.0688 13.4286 79.0742 13.2698L78.0747 13.2363C78.069 13.4064 78.0662 13.5777 78.0662 13.75H79.0662ZM79.1397 12.3144C79.1733 11.994 79.2184 11.6788 79.2749 11.3689L78.2911 11.1896C78.23 11.5249 78.1813 11.8651 78.1452 12.2102L79.1397 12.3144ZM79.4828 10.4388C79.5648 10.1305 79.659 9.82752 79.7653 9.52984L78.8234 9.19368C78.7079 9.51753 78.6055 9.84683 78.5164 10.1815L79.4828 10.4388ZM80.1222 8.64825C80.2532 8.36022 80.3964 8.07725 80.5518 7.79933L79.6791 7.31113C79.5102 7.61316 79.3544 7.92092 79.2119 8.23438L80.1222 8.64825ZM81.0504 6.98766C81.226 6.72602 81.4134 6.46903 81.6128 6.21669L80.828 5.59683C80.613 5.86907 80.4103 6.14692 80.2201 6.43038L81.0504 6.98766ZM82.233 5.48832C82.3402 5.3712 82.4503 5.25515 82.5631 5.14017L81.8493 4.43983C81.7285 4.56291 81.6106 4.68731 81.4955 4.81302L82.233 5.48832ZM82.5631 5.14017C82.6786 5.02243 82.7955 4.90768 82.9139 4.79591L82.2274 4.0688C82.0997 4.18942 81.9736 4.3131 81.8493 4.43983L82.5631 5.14017ZM83.6529 4.15168C83.9093 3.94579 84.1719 3.75244 84.4407 3.57157L83.8824 2.74193C83.59 2.93868 83.3048 3.1487 83.0268 3.37193L83.6529 4.15168ZM85.2742 3.06154C85.5591 2.90381 85.8505 2.7587 86.1486 2.62619L85.7423 1.71243C85.4177 1.85674 85.1002 2.01483 84.7898 2.18668L85.2742 3.06154ZM87.0582 2.268C87.3642 2.16238 87.6768 2.06885 87.9961 1.98747L87.7492 1.01845C87.4035 1.10654 87.0644 1.20795 86.7319 1.32273L87.0582 2.268ZM88.9558 1.78294C89.2746 1.72782 89.5997 1.68387 89.9311 1.65116L89.8328 0.655994C89.4779 0.691024 89.1288 0.738196 88.7854 0.797573L88.9558 1.78294ZM90.9161 1.58769C91.0797 1.58257 91.2447 1.58 91.4112 1.58V0.58C91.2344 0.58 91.0589 0.582725 90.8847 0.588185L90.9161 1.58769ZM91.4112 1.58C91.577 1.58 91.7413 1.58252 91.9042 1.58756L91.9351 0.588033C91.7617 0.582675 91.5871 0.58 91.4112 0.58V1.58ZM92.885 1.64992C93.2151 1.68208 93.5388 1.7253 93.8561 1.77952L94.0246 0.793812C93.6829 0.735429 93.3353 0.689056 92.9819 0.654627L92.885 1.64992ZM94.812 1.98091C95.1303 2.06113 95.4417 2.15334 95.7464 2.25749L96.0699 1.31124C95.7387 1.19805 95.4009 1.09806 95.0565 1.01124L94.812 1.98091ZM96.6528 2.61121C96.95 2.74224 97.2405 2.88577 97.5242 3.0418L98.0061 2.16556C97.6967 1.99542 97.3801 1.83896 97.0562 1.69619L96.6528 2.61121ZM98.3548 3.54707C98.6227 3.7265 98.8843 3.91834 99.1396 4.12268L99.7645 3.34202C99.4874 3.12019 99.203 2.91155 98.9112 2.71616L98.3548 3.54707ZM99.8752 4.76278C99.993 4.87392 100.109 4.98803 100.224 5.10514L100.938 4.40486C100.814 4.27864 100.689 4.15546 100.561 4.03536L99.8752 4.76278ZM100.224 5.10514C100.337 5.22018 100.447 5.33639 100.554 5.45378L101.293 4.7794C101.177 4.65313 101.059 4.52828 100.938 4.40486L100.224 5.10514ZM101.173 6.18427C101.372 6.43727 101.558 6.69536 101.733 6.95854L102.566 6.40566C102.377 6.12009 102.175 5.84058 101.96 5.56711L101.173 6.18427ZM102.227 7.77434C102.381 8.0533 102.522 8.33774 102.652 8.62769L103.565 8.22044C103.424 7.90485 103.27 7.59534 103.103 7.29192L102.227 7.77434ZM103.003 9.51374C103.107 9.81244 103.2 10.1168 103.28 10.4268L104.248 10.1758C104.161 9.83962 104.061 9.50912 103.947 9.18435L103.003 9.51374ZM103.483 11.3607C103.538 11.6715 103.582 11.9878 103.615 12.3097L104.61 12.2086C104.574 11.8627 104.527 11.522 104.468 11.1864L103.483 11.3607ZM103.678 13.2682C103.684 13.4275 103.686 13.5881 103.686 13.75H104.686C104.686 13.5775 104.683 13.4061 104.678 13.2358L103.678 13.2682ZM103.686 13.75C103.686 13.9113 103.684 14.0714 103.678 14.2302L104.678 14.2637C104.683 14.0936 104.686 13.9223 104.686 13.75H103.686ZM103.613 15.1856C103.579 15.506 103.534 15.8212 103.477 16.1311L104.461 16.3104C104.522 15.9751 104.571 15.6349 104.607 15.2898L103.613 15.1856ZM103.27 17.0612C103.188 17.3695 103.093 17.6725 102.987 17.9702L103.929 18.3063C104.044 17.9825 104.147 17.6532 104.236 17.3185L103.27 17.0612ZM102.63 18.8517C102.499 19.1398 102.356 19.4228 102.201 19.7007L103.073 20.1889C103.242 19.8868 103.398 19.5791 103.54 19.2656L102.63 18.8517ZM101.702 20.5123C101.526 20.774 101.339 21.031 101.14 21.2833L101.924 21.9032C102.139 21.6309 102.342 21.3531 102.532 21.0696L101.702 20.5123ZM100.519 22.0117C100.412 22.1288 100.302 22.2448 100.189 22.3598L100.903 23.0602C101.024 22.9371 101.142 22.8127 101.257 22.687L100.519 22.0117ZM85.7945 19.6069C85.6725 19.4739 85.5556 19.3388 85.4439 19.2015L84.6683 19.8328C84.7927 19.9856 84.9226 20.1357 85.0578 20.2831L85.7945 19.6069ZM84.8235 18.3335C84.6349 18.0302 84.468 17.7174 84.3226 17.3947L83.4109 17.8056C83.5746 18.1689 83.7625 18.521 83.9743 18.8615L84.8235 18.3335ZM83.9509 16.3975C83.8502 16.0611 83.7699 15.7144 83.7102 15.3572L82.7239 15.522C82.7903 15.9193 82.8799 16.3068 82.9929 16.6843L83.9509 16.3975ZM83.595 14.2897C83.5858 14.1122 83.5812 13.9323 83.5812 13.75H82.5812C82.5812 13.9492 82.5862 14.1464 82.5963 14.3415L83.595 14.2897ZM83.5812 13.75C83.5812 13.5676 83.5856 13.3878 83.5945 13.2105L82.5958 13.1604C82.586 13.3548 82.5812 13.5513 82.5812 13.75H83.5812ZM83.7061 12.1431C83.7641 11.7852 83.8421 11.4384 83.9401 11.1025L82.9802 10.8224C82.8703 11.1989 82.7833 11.5859 82.7189 11.9832L83.7061 12.1431ZM84.3037 10.1043C84.4467 9.78059 84.611 9.46748 84.7967 9.16489L83.9445 8.64182C83.7353 8.98255 83.5502 9.33543 83.389 9.70033L84.3037 10.1043ZM85.4112 8.2972C85.5222 8.16008 85.6384 8.0253 85.7598 7.89286L85.0226 7.21714C84.8876 7.36444 84.758 7.51474 84.6339 7.66803L85.4112 8.2972ZM85.7572 7.89562C85.8776 7.76625 86.0004 7.64242 86.1255 7.52408L85.4385 6.79747C85.2975 6.93077 85.1597 7.06976 85.0251 7.21438L85.7572 7.89562ZM86.9278 6.86307C87.2117 6.66104 87.5067 6.48238 87.8129 6.32687L87.3601 5.43528C87.0092 5.61349 86.6718 5.8179 86.348 6.0483L86.9278 6.86307ZM88.7678 5.92868C89.0913 5.82112 89.4268 5.7354 89.7746 5.67176L89.5946 4.6881C89.2023 4.75988 88.8214 4.85702 88.4523 4.97977L88.7678 5.92868ZM90.8142 5.54956C90.987 5.53987 91.1627 5.535 91.3412 5.535V4.535C91.1445 4.535 90.9502 4.54036 90.7582 4.55113L90.8142 5.54956ZM91.3412 5.535C91.52 5.535 91.696 5.53996 91.8692 5.54983L91.9261 4.55145C91.7335 4.54047 91.5385 4.535 91.3412 4.535V5.535ZM92.9105 5.67428C93.2586 5.73904 93.5943 5.82626 93.9181 5.93571L94.2384 4.98838C93.8684 4.86331 93.4867 4.76431 93.0934 4.69115L92.9105 5.67428ZM94.8727 6.34029C95.1782 6.49801 95.4727 6.67916 95.7562 6.88401L96.3419 6.07348C96.0186 5.83989 95.6817 5.63254 95.3313 5.45168L94.8727 6.34029ZM96.556 7.55279C96.6806 7.67235 96.8029 7.79743 96.9228 7.92809L97.6595 7.25191C97.5256 7.10598 97.3885 6.9657 97.2482 6.83113L96.556 7.55279ZM96.9277 7.93331C97.0513 8.06422 97.1697 8.19731 97.2828 8.33259L98.0499 7.69108C97.9236 7.54009 97.7919 7.39196 97.6547 7.24669L96.9277 7.93331ZM97.9117 9.19019C98.103 9.49039 98.2723 9.80054 98.4197 10.1208L99.3281 9.70253C99.1615 9.34084 98.9705 8.99089 98.7551 8.65281L97.9117 9.19019ZM98.7967 11.1119C98.8988 11.4465 98.9801 11.7917 99.0406 12.1477L100.026 11.9803C99.9591 11.5834 99.868 11.1966 99.7532 10.8201L98.7967 11.1119ZM99.1572 13.2118C99.1665 13.3887 99.1712 13.5681 99.1712 13.75H100.171C100.171 13.551 100.166 13.3541 100.156 13.1593L99.1572 13.2118ZM99.1712 13.75C99.1712 13.9327 99.1666 14.1128 99.1576 14.2904L100.156 14.3414C100.166 14.1464 100.171 13.9493 100.171 13.75H99.1712ZM99.0439 15.3593C98.9848 15.7175 98.9053 16.0646 98.8055 16.4007L99.7642 16.6853C99.8762 16.308 99.9649 15.9201 100.031 15.522L99.0439 15.3593ZM98.4357 17.3986C98.2905 17.7217 98.1237 18.0344 97.9352 18.3365L98.7836 18.8659C98.9959 18.5255 99.1841 18.173 99.3479 17.8084L98.4357 17.3986ZM97.3127 19.2016C97.2004 19.3382 97.0829 19.4724 96.9601 19.6044L97.6922 20.2856C97.8287 20.139 97.9597 19.9893 98.0852 19.8367L97.3127 19.2016ZM96.9576 19.6071C96.8389 19.7367 96.7176 19.8606 96.594 19.9791L97.2857 20.7013C97.4253 20.5675 97.5617 20.428 97.6948 20.2829L96.9576 19.6071ZM95.7998 20.6405C95.5185 20.8424 95.2258 21.021 94.9215 21.1763L95.3761 22.067C95.7257 21.8885 96.0613 21.6837 96.383 21.4528L95.7998 20.6405ZM93.9723 21.5735C93.6508 21.6805 93.3171 21.7659 92.9707 21.8292L93.1505 22.8129C93.5415 22.7414 93.9209 22.6446 94.2883 22.5222L93.9723 21.5735ZM91.9358 21.9506C91.7638 21.9602 91.5889 21.965 91.4112 21.965V22.965C91.607 22.965 91.8005 22.9597 91.9917 22.949L91.9358 21.9506ZM91.4112 21.965C91.232 21.965 91.0555 21.9601 90.8818 21.9503L90.8256 22.9487C91.0185 22.9596 91.2137 22.965 91.4112 22.965V21.965ZM89.8374 21.8273C89.4882 21.7633 89.151 21.6772 88.8255 21.5692L88.5105 22.5182C88.8813 22.6414 89.2637 22.7388 89.6572 22.8109L89.8374 21.8273ZM87.8649 21.17C87.5569 21.0143 87.2596 20.8355 86.9731 20.6334L86.3967 21.4505C86.7226 21.6804 87.0617 21.8845 87.4139 22.0625L87.8649 21.17ZM86.1627 19.9728C86.036 19.8546 85.9117 19.7309 85.7897 19.6017L85.0627 20.2883C85.1988 20.4324 85.3379 20.5709 85.4802 20.7037L86.1627 19.9728ZM100.546 22.71L101.26 23.4103L100.546 22.71ZM82.1712 22.745L81.4573 23.4453H81.4573L82.1712 22.745ZM82.2062 4.79L81.4924 4.08966L82.2062 4.79ZM100.581 4.755L101.295 4.05472L100.581 4.755ZM85.4262 19.945L84.6894 20.6212L84.6943 20.6264L84.6992 20.6316L85.4262 19.945ZM97.3262 19.945L96.5941 19.2638L96.589 19.2693L97.3262 19.945ZM97.2912 7.59L96.5544 8.26618L96.5593 8.27144L96.5642 8.27662L97.2912 7.59ZM85.3912 7.555L84.6591 6.87375L84.654 6.87927L85.3912 7.555ZM99.8324 22.0097C99.7213 22.1229 99.6088 22.2332 99.4952 22.3405L100.868 23.7948C101.001 23.6697 101.131 23.5416 101.26 23.4103L99.8324 22.0097ZM98.7864 22.9585C98.5408 23.1557 98.2895 23.3407 98.0325 23.5136L99.1491 25.1729C99.4533 24.9682 99.7498 24.7498 100.039 24.5179L98.7864 22.9585ZM97.236 24.001C96.9639 24.1517 96.6854 24.2903 96.4007 24.4169L97.2131 26.2445C97.551 26.0942 97.8816 25.9297 98.2047 25.7508L97.236 24.001ZM95.5311 24.7594C95.2383 24.8604 94.9389 24.95 94.6327 25.028L95.1267 26.9661C95.4855 26.8746 95.8378 26.7693 96.1836 26.6499L95.5311 24.7594ZM93.7113 25.2244C93.4048 25.2774 93.0918 25.3197 92.7722 25.3513L92.9686 27.3416C93.3353 27.3054 93.6965 27.2566 94.0521 27.1951L93.7113 25.2244ZM91.8206 25.4126C91.6623 25.4175 91.5025 25.42 91.3412 25.42V27.42C91.5231 27.42 91.7038 27.4172 91.8833 27.4116L91.8206 25.4126ZM91.3412 25.42C91.1805 25.42 91.0213 25.4176 90.8636 25.4127L90.8018 27.4117C90.9804 27.4172 91.1602 27.42 91.3412 27.42V25.42ZM89.9159 25.3524C89.5974 25.3214 89.2856 25.2798 88.9804 25.2276L88.6436 27.199C88.9974 27.2595 89.3569 27.3075 89.7219 27.343L89.9159 25.3524ZM88.0625 25.0343C87.7574 24.9573 87.4591 24.869 87.1676 24.7694L86.5207 26.6619C86.8651 26.7796 87.2161 26.8835 87.5737 26.9736L88.0625 25.0343ZM86.3012 24.4313C86.0173 24.3061 85.74 24.1691 85.4691 24.0201L84.5053 25.7726C84.8275 25.9497 85.1572 26.1127 85.4944 26.2613L86.3012 24.4313ZM84.6758 23.5375C84.4197 23.366 84.1696 23.1826 83.9253 22.987L82.6754 24.5483C82.9634 24.7789 83.2593 24.9959 83.563 25.1993L84.6758 23.5375ZM83.2202 22.3735C83.1072 22.2669 82.9954 22.1573 82.885 22.0447L81.4573 23.4453C81.5856 23.5761 81.7158 23.7038 81.8479 23.8284L83.2202 22.3735ZM82.885 22.0447C82.7763 21.9339 82.6704 21.822 82.5672 21.709L81.0904 23.0578C81.2098 23.1885 81.3321 23.3177 81.4573 23.4453L82.885 22.0447ZM81.9724 21.0072C81.782 20.7644 81.6032 20.517 81.436 20.265L79.7695 21.3708C79.9664 21.6675 80.1762 21.9578 80.3987 22.2415L81.9724 21.0072ZM80.963 19.4844C80.8161 19.2177 80.6808 18.9458 80.5573 18.6687L78.7306 19.4832C78.8771 19.8116 79.0372 20.1336 79.2111 20.4493L80.963 19.4844ZM80.2214 17.8216C80.1218 17.5359 80.0334 17.2446 79.9564 16.9476L78.0204 17.4497C78.111 17.799 78.2152 18.1425 78.333 18.4803L80.2214 17.8216ZM79.7616 16.0521C79.7088 15.7537 79.6666 15.4496 79.6351 15.1398L77.6453 15.342C77.6817 15.6998 77.7306 16.0528 77.7923 16.4008L79.7616 16.0521ZM79.5737 14.2156C79.5687 14.0617 79.5662 13.9066 79.5662 13.75H77.5662C77.5662 13.9279 77.569 14.1046 77.5747 14.2804L79.5737 14.2156ZM79.5662 13.75C79.5662 13.5942 79.5687 13.4397 79.5739 13.2865L77.575 13.2196C77.5691 13.3954 77.5662 13.5722 77.5662 13.75H79.5662ZM79.637 12.3665C79.6693 12.0584 79.7126 11.7558 79.7668 11.4585L77.7992 11.1C77.7357 11.4479 77.6854 11.8007 77.6479 12.158L79.637 12.3665ZM79.966 10.5674C80.0445 10.2723 80.1346 9.98252 80.2362 9.69792L78.3525 9.0256C78.2323 9.36254 78.1259 9.705 78.0332 10.0529L79.966 10.5674ZM80.5774 8.85519C80.7026 8.57987 80.8395 8.30929 80.9882 8.04342L79.2427 7.06704C79.067 7.38111 78.905 7.70127 78.7567 8.02745L80.5774 8.85519ZM81.4656 7.2663C81.6338 7.01558 81.8136 6.76901 82.0051 6.52662L80.4357 5.2869C80.2128 5.56909 80.0025 5.85736 79.8049 6.15174L81.4656 7.2663ZM82.6018 5.82597C82.7051 5.71315 82.8111 5.60127 82.92 5.49034L81.4924 4.08966C81.3676 4.21679 81.2457 4.34536 81.1267 4.47536L82.6018 5.82597ZM82.92 5.49034C83.0311 5.37709 83.1435 5.26681 83.2572 5.15946L81.8841 3.70524C81.7517 3.83029 81.6211 3.95843 81.4924 4.08966L82.92 5.49034ZM83.9659 4.54155C84.2115 4.34433 84.4628 4.15932 84.7198 3.98639L83.6032 2.32711C83.299 2.5318 83.0025 2.75016 82.7137 2.98206L83.9659 4.54155ZM85.5163 3.49898C85.7885 3.34831 86.0669 3.20968 86.3517 3.08308L85.5392 1.25554C85.2013 1.40576 84.8708 1.57034 84.5476 1.74924L85.5163 3.49898ZM87.2213 2.74064C87.5141 2.63959 87.8135 2.55001 88.1196 2.47198L87.6257 0.533934C87.2669 0.625382 86.9145 0.730742 86.5687 0.850094L87.2213 2.74064ZM89.0411 2.27563C89.3475 2.22263 89.6605 2.18029 89.9802 2.14874L89.7837 0.158411C89.417 0.194603 89.0558 0.243386 88.7002 0.304887L89.0411 2.27563ZM90.9317 2.08745C91.09 2.08249 91.2498 2.08 91.4112 2.08V0.0799996C91.2293 0.0799996 91.0486 0.0828047 90.8691 0.0884301L90.9317 2.08745ZM91.4112 2.08C91.5719 2.08 91.7311 2.08244 91.8887 2.08732L91.9505 0.0882719C91.772 0.082752 91.5922 0.0799996 91.4112 0.0799996V2.08ZM92.8365 2.14756C93.155 2.17859 93.4667 2.22024 93.7719 2.27238L94.1088 0.300955C93.7549 0.240494 93.3955 0.192546 93.0304 0.156983L92.8365 2.14756ZM94.6898 2.46574C94.995 2.54266 95.2932 2.63098 95.5847 2.73061L96.2316 0.838116C95.8872 0.720406 95.5362 0.616531 95.1787 0.526405L94.6898 2.46574ZM96.4511 3.06871C96.735 3.19388 97.0124 3.33094 97.2833 3.47992L98.247 1.72744C97.9248 1.55025 97.5951 1.38732 97.2579 1.23868L96.4511 3.06871ZM98.0766 3.96253C98.3326 4.13397 98.5828 4.31742 98.8271 4.51301L100.077 2.9517C99.789 2.72111 99.4931 2.50407 99.1894 2.3007L98.0766 3.96253ZM99.5321 5.12649C99.6452 5.23314 99.7569 5.34273 99.8673 5.45527L101.295 4.05472C101.167 3.92394 101.037 3.79624 100.904 3.67165L99.5321 5.12649ZM99.8673 5.45527C99.976 5.56612 100.082 5.67803 100.185 5.79097L101.662 4.44221C101.543 4.3115 101.42 4.18234 101.295 4.05472L99.8673 5.45527ZM100.78 6.49284C100.97 6.73561 101.149 6.98299 101.316 7.23499L102.983 6.12921C102.786 5.83246 102.576 5.54224 102.354 5.25853L100.78 6.49284ZM101.789 8.01555C101.936 8.28229 102.072 8.55419 102.195 8.83132L104.022 8.01681C103.875 7.68841 103.715 7.36636 103.541 7.05071L101.789 8.01555ZM102.531 9.67843C102.631 9.96411 102.719 10.2554 102.796 10.5524L104.732 10.0503C104.641 9.70103 104.537 9.35746 104.419 9.01966L102.531 9.67843ZM102.991 11.4479C103.044 11.7463 103.086 12.0504 103.117 12.3602L105.107 12.158C105.071 11.8002 105.022 11.4472 104.96 11.0992L102.991 11.4479ZM103.179 13.2844C103.184 13.4383 103.186 13.5934 103.186 13.75H105.186C105.186 13.5721 105.183 13.3953 105.178 13.2196L103.179 13.2844ZM103.186 13.75C103.186 13.9058 103.184 14.0603 103.178 14.2135L105.177 14.2804C105.183 14.1046 105.186 13.9278 105.186 13.75H103.186ZM103.115 15.1335C103.083 15.4416 103.04 15.7442 102.986 16.0415L104.953 16.4C105.017 16.0521 105.067 15.6993 105.104 15.342L103.115 15.1335ZM102.786 16.9326C102.708 17.2277 102.618 17.5175 102.516 17.8021L104.4 18.4744C104.52 18.1375 104.626 17.795 104.719 17.4471L102.786 16.9326ZM102.175 18.6448C102.05 18.9201 101.913 19.1907 101.764 19.4566L103.51 20.433C103.685 20.1189 103.847 19.7987 103.996 19.4726L102.175 18.6448ZM101.287 20.2337C101.119 20.4844 100.939 20.731 100.747 20.9734L102.317 22.2131C102.54 21.9309 102.75 21.6426 102.947 21.3483L101.287 20.2337ZM100.151 21.674C100.047 21.7868 99.9412 21.8987 99.8324 22.0097L101.26 23.4103C101.385 23.2832 101.507 23.1546 101.626 23.0246L100.151 21.674ZM86.1629 19.2688C86.0474 19.143 85.9371 19.0154 85.8317 18.8859L84.2805 20.1484C84.4113 20.3091 84.5476 20.4667 84.6894 20.6212L86.1629 19.2688ZM85.2481 18.0694C85.0711 17.7849 84.9147 17.4916 84.7785 17.1893L82.955 18.011C83.128 18.3947 83.3263 18.7663 83.5497 19.1256L85.2481 18.0694ZM84.4299 16.2541C84.3353 15.9382 84.2597 15.6119 84.2034 15.2748L82.2307 15.6044C82.3005 16.0218 82.3948 16.4297 82.5139 16.8278L84.4299 16.2541ZM84.0943 14.2638C84.0856 14.0952 84.0812 13.9239 84.0812 13.75H82.0812C82.0812 13.9577 82.0864 14.1635 82.097 14.3674L84.0943 14.2638ZM84.0812 13.75C84.0812 13.5758 84.0854 13.4043 84.0939 13.2355L82.0964 13.1354C82.0862 13.3383 82.0812 13.5432 82.0812 13.75H84.0812ZM84.1996 12.2231C84.2544 11.8848 84.3281 11.5581 84.4201 11.2425L82.5002 10.6824C82.3844 11.0792 82.2929 11.4863 82.2254 11.9032L84.1996 12.2231ZM84.7611 10.3064C84.895 10.0032 85.0489 9.70995 85.2229 9.42643L83.5183 8.38028C83.2975 8.74008 83.1019 9.11285 82.9316 9.49833L84.7611 10.3064ZM85.7998 8.61178C85.9043 8.48275 86.0137 8.35573 86.1283 8.23072L84.654 6.87927C84.5122 7.03401 84.3759 7.19207 84.2453 7.35345L85.7998 8.61178ZM86.1232 8.23623C86.2365 8.1145 86.3518 7.99825 86.469 7.88738L85.0949 6.43417C84.9461 6.57495 84.8008 6.72151 84.6591 6.87377L86.1232 8.23623ZM87.2177 7.27045C87.4817 7.0826 87.7555 6.91683 88.0393 6.77267L87.1336 4.98949C86.7604 5.17904 86.4019 5.39634 86.0582 5.64092L87.2177 7.27045ZM88.9256 6.40314C89.2262 6.30316 89.539 6.22316 89.8645 6.1636L89.5046 4.19626C89.09 4.27212 88.6865 4.37497 88.2945 4.50531L88.9256 6.40314ZM90.8422 6.04878C91.0055 6.03962 91.1718 6.035 91.3412 6.035V4.035C91.1354 4.035 90.9317 4.04061 90.7302 4.05192L90.8422 6.04878ZM91.3412 6.035C91.5107 6.035 91.6773 6.0397 91.8407 6.04902L91.9546 4.05227C91.7522 4.04073 91.5477 4.035 91.3412 4.035V6.035ZM92.819 6.16584C93.1445 6.2264 93.4573 6.30773 93.758 6.40937L94.3985 4.51471C94.0054 4.38184 93.6007 4.27695 93.1849 4.19958L92.819 6.16584ZM94.6433 6.7846C94.9265 6.93074 95.1997 7.0988 95.4633 7.28927L96.6347 5.66822C96.2916 5.42026 95.9335 5.19981 95.5606 5.00737L94.6433 6.7846ZM96.2098 7.91362C96.3267 8.02568 96.4415 8.14316 96.5544 8.26618L98.0279 6.91382C97.887 6.76025 97.7425 6.61238 97.5943 6.4703L96.2098 7.91362ZM96.5642 8.27662C96.681 8.40034 96.7927 8.52593 96.8992 8.65335L98.4335 7.37033C98.3006 7.21148 98.1622 7.05584 98.0182 6.90338L96.5642 8.27662ZM97.49 9.45888C97.6693 9.74013 97.8277 10.0304 97.9656 10.3299L99.7822 9.49342C99.6062 9.11098 99.4042 8.74115 99.1767 8.38412L97.49 9.45888ZM98.3185 11.2578C98.4142 11.5715 98.4907 11.8959 98.5476 12.2315L100.519 11.8966C100.449 11.4792 100.353 11.0716 100.231 10.6742L98.3185 11.2578ZM98.6579 13.2381C98.6667 13.406 98.6712 13.5767 98.6712 13.75H100.671C100.671 13.5424 100.666 13.3368 100.655 13.133L98.6579 13.2381ZM98.6712 13.75C98.6712 13.9244 98.6668 14.096 98.6582 14.265L100.656 14.3668C100.666 14.1632 100.671 13.9576 100.671 13.75H98.6712ZM98.5506 15.278C98.4948 15.6162 98.4199 15.9429 98.3262 16.2584L100.243 16.8276C100.362 16.4297 100.455 16.0215 100.524 15.6033L98.5506 15.278ZM97.9796 17.1937C97.8437 17.4961 97.6876 17.7888 97.511 18.0719L99.2078 19.1305C99.4321 18.7711 99.6308 18.3986 99.804 18.0133L97.9796 17.1937ZM96.9265 18.8841C96.8208 19.0126 96.71 19.1392 96.5941 19.2638L98.0582 20.6262C98.2016 20.4722 98.3393 20.3149 98.4714 20.1542L96.9265 18.8841ZM96.589 19.2693C96.4774 19.391 96.3638 19.5072 96.2481 19.618L97.6315 21.0624C97.7792 20.9209 97.9231 20.7737 98.0633 20.6207L96.589 19.2693ZM95.5082 20.2343C95.2471 20.4218 94.9758 20.5872 94.6942 20.731L95.6035 22.5123C95.9756 22.3223 96.3328 22.1044 96.6746 21.859L95.5082 20.2343ZM93.8143 21.0991C93.5158 21.1985 93.2048 21.2781 92.8808 21.3373L93.2404 23.3047C93.6538 23.2292 94.0559 23.1266 94.4463 22.9966L93.8143 21.0991ZM91.9079 21.4513C91.7454 21.4604 91.5799 21.465 91.4112 21.465V23.465C91.6161 23.465 91.8189 23.4594 92.0196 23.4482L91.9079 21.4513ZM91.4112 21.465C91.2411 21.465 91.074 21.4603 90.9099 21.4511L90.7976 23.4479C91 23.4593 91.2046 23.465 91.4112 23.465V21.465ZM89.9275 21.3355C89.6005 21.2756 89.2859 21.1952 88.983 21.0946L88.3529 22.9928C88.7465 23.1234 89.1514 23.2266 89.5671 23.3027L89.9275 21.3355ZM88.0904 20.7237C87.8044 20.5792 87.5282 20.4131 87.2613 20.2248L86.1085 21.8591C86.454 22.1029 86.8141 22.3196 87.1884 22.5087L88.0904 20.7237ZM86.5039 19.6073C86.3851 19.4964 86.2682 19.3801 86.1532 19.2584L84.6992 20.6316C84.8423 20.7832 84.9889 20.9291 85.139 21.0692L86.5039 19.6073Z" fill="#FED700"/>
</svg>
